<?xml version="1.0" standalone="no"?>
<!DOCTYPE svg PUBLIC "-//W3C//DTD SVG 20010904//EN"
 "http://www.w3.org/TR/2001/REC-SVG-20010904/DTD/svg10.dtd">
<svg version="1.0" xmlns="http://www.w3.org/2000/svg"
 width="1261.000000pt" height="1280.000000pt" viewBox="0 0 1261.000000 1280.000000"
 preserveAspectRatio="xMidYMid meet">
<metadata>
Created by potrace 1.15, written by Peter Selinger 2001-2017
</metadata>
<g transform="translate(0.000000,1280.000000) scale(0.100000,-0.100000)"
fill="#000000" stroke="none">
<path d="M6544 12785 c-6 -16 -28 -17 -263 -14 -343 3 -912 -35 -1039 -71 -20
-5 -58 -10 -83 -10 -26 0 -66 -7 -89 -15 -23 -8 -63 -15 -89 -15 -25 -1 -57
-7 -71 -15 -14 -8 -44 -14 -67 -15 -23 0 -54 -5 -70 -11 -29 -12 -111 -33
-198 -51 -27 -6 -62 -16 -77 -24 -14 -8 -39 -14 -55 -14 -15 0 -48 -9 -72 -20
-24 -11 -52 -20 -63 -20 -11 0 -32 -6 -46 -14 -15 -7 -65 -26 -112 -41 -47
-15 -89 -32 -94 -36 -6 -5 -17 -9 -25 -9 -9 -1 -34 -9 -56 -20 -22 -11 -44
-19 -48 -20 -5 0 -25 -7 -45 -16 -21 -9 -55 -25 -77 -34 -102 -45 -166 -75
-245 -116 -165 -84 -225 -116 -265 -140 -22 -13 -58 -33 -80 -46 -22 -12 -47
-27 -56 -33 -9 -5 -34 -20 -55 -33 -48 -28 -65 -39 -195 -127 -57 -38 -111
-74 -120 -80 -25 -15 -185 -135 -243 -181 -28 -22 -94 -73 -146 -112 -52 -40
-113 -90 -135 -111 -22 -21 -114 -105 -205 -187 -170 -153 -314 -295 -442
-436 -40 -44 -97 -105 -125 -135 -29 -30 -53 -57 -53 -61 0 -4 -23 -31 -51
-61 -27 -29 -62 -70 -77 -90 -15 -20 -58 -75 -97 -123 -145 -181 -163 -204
-179 -235 -9 -18 -20 -33 -25 -33 -5 0 -14 -13 -21 -29 -6 -16 -20 -37 -31
-47 -10 -9 -19 -24 -19 -33 0 -9 -12 -43 -25 -76 -14 -33 -30 -93 -37 -133
-11 -73 -11 -74 -52 -92 -22 -10 -60 -23 -83 -29 -37 -10 -45 -18 -77 -76 -30
-54 -35 -74 -36 -132 -2 -119 15 -508 23 -520 10 -15 -9 -345 -24 -414 -6 -30
-22 -72 -35 -95 -13 -22 -24 -48 -24 -57 0 -9 -14 -46 -30 -80 -17 -35 -30
-70 -30 -78 0 -8 -9 -33 -20 -54 -12 -22 -28 -64 -36 -94 -9 -30 -27 -77 -40
-105 -13 -28 -24 -60 -24 -72 0 -12 -10 -41 -23 -65 -13 -24 -29 -66 -36 -94
-7 -27 -19 -60 -26 -71 -8 -12 -23 -55 -34 -95 -10 -41 -29 -101 -40 -134 -12
-33 -26 -87 -32 -119 -8 -41 -19 -66 -37 -83 -22 -20 -27 -35 -30 -87 -4 -53
-1 -67 15 -83 12 -12 22 -40 26 -70 10 -90 66 -163 131 -175 21 -3 26 11 41
116 5 36 15 57 40 82 19 19 38 34 43 34 29 0 92 -109 92 -160 0 -29 -49 -166
-76 -210 -8 -14 -24 -43 -35 -65 -10 -22 -33 -58 -49 -80 -17 -22 -38 -51 -48
-65 -9 -13 -25 -33 -34 -42 -10 -10 -18 -23 -18 -30 0 -6 -7 -19 -15 -28 -18
-20 -95 -176 -95 -193 0 -7 -10 -30 -22 -52 -12 -22 -31 -80 -42 -129 -19 -81
-31 -102 -63 -112 -2 0 -8 -58 -14 -128 -11 -117 -10 -128 7 -147 14 -16 19
-47 26 -177 10 -195 21 -301 35 -327 6 -11 14 -42 18 -70 4 -27 13 -58 21 -69
8 -11 14 -31 14 -43 0 -13 9 -40 20 -60 11 -21 20 -42 20 -48 0 -15 63 -136
118 -225 25 -41 86 -127 136 -190 l91 -114 1 -141 c1 -77 7 -210 13 -295 7
-85 16 -211 21 -280 16 -224 27 -324 39 -353 6 -16 11 -54 11 -85 0 -32 5 -73
11 -92 6 -19 15 -73 19 -120 18 -166 27 -226 44 -273 9 -26 16 -65 16 -86 0
-21 7 -55 15 -74 8 -20 15 -53 15 -74 1 -21 7 -49 15 -63 8 -14 14 -36 15 -50
0 -14 6 -45 14 -70 8 -25 24 -76 36 -115 38 -122 92 -248 133 -308 34 -48 45
-57 71 -58 17 0 80 -4 140 -8 104 -8 111 -8 158 16 73 37 79 52 88 216 4 78 5
146 2 152 -8 12 -24 333 -26 493 l-1 124 29 25 c26 22 35 24 80 18 38 -5 59
-15 84 -38 31 -30 32 -34 32 -111 0 -45 5 -98 11 -120 6 -21 12 -102 14 -180
2 -77 9 -215 15 -306 7 -91 13 -219 14 -285 0 -66 5 -127 10 -135 6 -8 13 -66
18 -130 11 -165 24 -260 42 -314 9 -26 16 -52 16 -59 0 -21 58 -84 87 -94 15
-6 60 -22 98 -37 42 -15 119 -32 195 -41 71 -9 127 -21 131 -28 25 -43 58 -78
82 -86 15 -6 31 -21 36 -34 15 -39 132 -53 150 -18 6 10 23 22 38 26 16 3 60
22 98 40 64 31 80 34 180 38 128 4 237 21 317 48 71 23 130 50 143 65 6 6 26
20 45 32 67 41 199 191 200 228 0 5 11 25 24 42 13 18 29 59 35 92 7 33 20 79
31 102 26 59 60 430 66 703 2 116 8 296 14 400 15 259 16 367 8 826 -4 227
-12 424 -18 460 -7 38 -9 99 -6 149 4 51 2 99 -4 120 -6 19 -16 91 -21 160 -6
69 -14 172 -19 230 -11 130 -27 261 -40 318 -6 23 -10 64 -10 91 0 26 -7 70
-15 97 -8 27 -15 74 -15 104 -1 30 -7 66 -15 80 -8 14 -14 45 -15 69 0 24 -6
64 -14 90 -17 52 -33 129 -45 212 -5 30 -14 66 -20 78 -7 12 -16 43 -21 69 -4
26 -13 61 -18 77 -6 17 -20 64 -32 105 -11 41 -25 89 -31 105 -6 17 -15 48
-20 70 -6 21 -14 44 -18 50 -5 5 -11 24 -15 40 -4 17 -13 44 -20 60 -8 17 -24
57 -36 90 -13 33 -29 67 -36 76 -8 8 -14 20 -14 26 0 17 -91 148 -155 222 -83
98 -114 107 -430 137 -93 8 -275 17 -404 19 -197 3 -244 1 -302 -14 -59 -15
-73 -23 -96 -55 -79 -108 -140 -141 -276 -149 -53 -3 -83 -9 -95 -21 -10 -9
-23 -16 -29 -16 -15 0 -99 -101 -108 -130 -4 -14 -16 -37 -26 -51 -25 -36 -48
-265 -31 -312 7 -18 12 -67 12 -109 0 -41 7 -97 15 -124 8 -27 15 -77 15 -111
0 -34 5 -74 11 -90 11 -27 20 -97 38 -303 5 -52 14 -108 20 -123 6 -16 11 -55
11 -87 0 -32 5 -71 11 -87 6 -15 15 -71 20 -123 5 -52 11 -116 15 -143 7 -56
-3 -72 -61 -98 -59 -27 -83 -24 -121 17 -31 35 -33 41 -38 133 -13 230 -22
327 -30 341 -6 8 -13 48 -17 90 -13 128 -43 238 -93 338 -28 58 -34 62 -109
69 -49 4 -76 2 -106 -11 -23 -9 -53 -16 -67 -16 -29 0 -119 -41 -149 -67 -11
-10 -33 -39 -48 -65 -24 -41 -29 -66 -42 -204 -8 -86 -18 -160 -21 -165 -3 -5
-16 -9 -29 -9 -31 0 -81 59 -96 112 -6 24 -18 60 -25 81 -8 20 -14 56 -14 78
0 22 -5 50 -12 62 -14 25 -31 219 -30 355 0 80 4 101 25 142 14 26 28 63 32
81 6 31 17 52 71 133 19 29 23 35 60 96 11 19 43 69 70 110 27 41 58 91 69
112 60 112 105 207 105 219 0 8 12 41 26 74 31 74 52 277 34 335 -6 19 -15 69
-20 110 -12 103 -29 180 -46 213 -8 16 -14 36 -14 45 0 10 -9 34 -20 55 -11
20 -20 44 -20 52 0 38 -73 0 -89 -46 -7 -21 -16 -29 -28 -27 -16 3 -18 13 -15
73 3 97 20 184 42 220 10 17 23 55 29 85 7 30 18 65 27 77 8 13 21 51 30 85 9
35 24 77 34 93 11 17 24 52 30 79 6 27 19 60 30 73 10 13 22 38 25 56 7 31 51
135 80 187 7 14 23 45 34 69 31 66 111 157 307 351 97 96 191 198 209 225 44
67 54 129 27 182 -11 21 -23 55 -27 74 -6 32 -3 39 25 62 22 19 43 27 71 27
80 0 159 80 246 250 30 57 75 133 97 162 12 15 44 59 71 99 48 69 295 374 320
394 6 6 31 33 55 60 62 73 347 360 425 430 38 33 78 70 90 83 12 12 25 22 27
22 3 0 23 16 43 35 56 50 140 106 220 145 45 22 92 56 133 97 65 64 90 75 112
48 7 -8 18 -15 25 -15 7 0 18 -7 25 -15 20 -24 150 -83 230 -104 41 -11 100
-27 130 -35 59 -17 146 -21 154 -7 3 4 24 11 47 15 75 12 183 83 296 195 34
34 48 41 81 41 24 0 49 -8 65 -20 31 -24 86 -36 244 -49 114 -10 125 -10 191
12 75 24 127 62 221 159 51 52 61 58 96 58 47 -1 109 -21 135 -45 28 -25 355
-50 386 -30 12 7 39 17 60 21 52 10 115 56 219 161 63 64 91 73 142 42 21 -12
47 -30 58 -40 11 -9 40 -22 65 -29 25 -6 56 -18 68 -27 13 -8 69 -19 125 -25
84 -9 108 -8 146 5 25 8 58 18 73 21 14 3 57 31 94 62 89 72 105 70 192 -25
41 -47 75 -74 100 -82 20 -7 47 -18 58 -26 32 -20 211 -38 249 -25 16 6 50 14
75 18 25 4 74 20 109 36 35 16 72 26 82 23 19 -6 89 -85 89 -100 0 -15 89
-112 132 -144 108 -80 102 -78 297 -96 163 -14 183 -14 210 0 39 20 130 20
159 -1 12 -8 31 -33 42 -54 29 -58 116 -158 153 -176 17 -9 41 -25 52 -34 16
-15 56 -22 196 -35 161 -15 180 -15 207 -1 17 9 48 16 70 16 40 0 68 -21 106
-84 22 -34 126 -149 141 -155 5 -2 24 -14 40 -26 17 -12 57 -35 90 -50 59 -28
60 -28 209 -20 83 3 168 13 191 20 22 7 55 16 74 19 19 3 64 20 99 37 74 35
79 33 117 -43 13 -26 51 -67 96 -105 111 -93 174 -156 253 -252 39 -47 77 -93
84 -101 70 -83 342 -475 342 -493 0 -3 25 -42 55 -88 30 -46 55 -89 55 -95 0
-7 6 -19 14 -26 7 -8 22 -29 32 -47 11 -19 36 -64 56 -100 56 -99 153 -303
177 -371 7 -19 22 -57 33 -85 11 -27 23 -64 28 -81 4 -18 15 -42 24 -55 9 -13
16 -31 16 -39 0 -9 21 -40 48 -69 37 -41 57 -54 96 -64 39 -10 53 -19 67 -44
18 -32 18 -34 -3 -70 -12 -21 -30 -48 -41 -60 -27 -30 -28 -123 -1 -178 20
-42 122 -201 158 -246 12 -14 28 -36 36 -48 8 -12 41 -57 72 -99 104 -140 176
-322 209 -525 5 -32 13 -67 19 -77 5 -10 10 -34 10 -53 0 -19 6 -57 14 -83 17
-56 33 -153 46 -269 4 -44 14 -95 20 -113 8 -22 11 -71 8 -140 -6 -142 -35
-198 -58 -112 -6 23 -21 47 -36 56 -24 16 -25 16 -59 -22 -18 -22 -37 -51 -40
-65 -3 -15 -17 -41 -31 -60 -13 -18 -24 -39 -24 -48 0 -8 -11 -33 -24 -55 -13
-23 -29 -67 -35 -98 -7 -32 -21 -82 -31 -112 -25 -69 -44 -260 -29 -287 6 -11
13 -52 16 -92 2 -40 11 -86 19 -104 8 -17 14 -39 14 -50 0 -10 7 -31 15 -47 8
-15 15 -33 15 -40 1 -6 9 -29 20 -51 11 -22 19 -46 20 -52 0 -7 9 -27 20 -45
11 -18 20 -39 20 -46 0 -8 16 -47 35 -88 19 -40 35 -79 35 -86 1 -7 9 -31 20
-53 11 -22 20 -56 20 -75 0 -19 7 -53 14 -75 17 -49 4 -220 -20 -266 -8 -17
-24 -71 -35 -122 -11 -50 -29 -105 -39 -122 -10 -16 -21 -47 -25 -68 -4 -20
-15 -47 -24 -60 -10 -12 -25 -42 -34 -67 -19 -52 -76 -103 -110 -98 -22 3 -22
4 -22 193 0 177 -2 193 -22 231 -25 48 -83 97 -140 120 -21 8 -55 24 -76 35
-23 13 -65 23 -111 26 -72 6 -73 5 -105 -28 -18 -19 -40 -50 -48 -69 -8 -19
-24 -47 -34 -62 -11 -14 -19 -33 -19 -41 0 -8 -13 -38 -29 -68 -15 -30 -31
-72 -35 -94 -5 -22 -18 -65 -31 -95 -12 -30 -28 -86 -34 -124 -7 -38 -20 -85
-30 -105 -11 -20 -24 -70 -31 -111 -11 -70 -15 -77 -50 -103 -49 -35 -74 -33
-130 7 -54 39 -61 68 -31 129 11 23 27 72 34 109 8 37 22 79 31 93 9 13 23 57
31 97 9 40 22 83 30 95 8 12 24 61 35 108 11 47 27 96 35 109 9 13 20 49 25
81 5 32 18 74 28 94 11 20 27 69 36 110 9 40 24 84 33 97 8 13 22 59 30 101 8
42 24 95 35 117 16 30 24 74 31 168 9 110 8 130 -6 161 -10 19 -17 46 -17 61
0 31 -47 102 -98 148 -29 26 -54 38 -102 47 -110 22 -220 104 -220 165 0 23
-49 86 -67 86 -7 0 -35 11 -61 24 -32 16 -87 30 -167 41 -66 9 -146 22 -180
30 -91 21 -393 48 -546 49 -135 1 -136 1 -179 -29 -40 -27 -213 -195 -250
-241 -30 -38 -97 -145 -131 -209 -12 -22 -30 -51 -40 -64 -11 -13 -19 -31 -19
-39 0 -8 -11 -30 -25 -48 -14 -18 -25 -39 -25 -46 0 -7 -14 -35 -30 -63 -16
-27 -30 -56 -30 -63 0 -7 -11 -29 -24 -50 -14 -20 -28 -50 -32 -67 -4 -16 -15
-41 -24 -55 -10 -14 -23 -43 -29 -65 -6 -22 -18 -50 -26 -62 -9 -13 -23 -45
-31 -73 -8 -28 -23 -65 -33 -83 -10 -17 -24 -54 -31 -82 -6 -27 -18 -57 -25
-65 -7 -8 -21 -44 -30 -80 -9 -36 -23 -75 -30 -86 -8 -12 -21 -53 -30 -90 -9
-38 -22 -79 -31 -91 -8 -13 -22 -58 -30 -100 -9 -43 -23 -89 -31 -102 -8 -12
-23 -66 -34 -119 -11 -53 -26 -107 -35 -120 -8 -13 -22 -62 -30 -109 -8 -47
-24 -108 -34 -137 -11 -28 -29 -103 -40 -166 -12 -63 -28 -125 -36 -137 -8
-12 -23 -86 -34 -163 -12 -78 -29 -163 -40 -190 -10 -26 -28 -117 -40 -202
-11 -84 -29 -187 -39 -228 -21 -83 -30 -138 -66 -415 -45 -352 -53 -408 -89
-625 -27 -161 -39 -378 -27 -476 6 -49 11 -111 11 -139 1 -27 7 -61 15 -75 8
-14 14 -35 15 -48 0 -12 9 -39 20 -59 11 -21 20 -44 20 -51 0 -16 92 -136 139
-181 70 -67 187 -136 268 -157 29 -8 64 -20 76 -28 12 -8 66 -22 121 -31 70
-11 107 -22 127 -38 38 -30 88 -65 127 -88 17 -10 32 -25 32 -32 0 -9 17 -17
46 -21 75 -10 91 -8 97 14 3 11 17 22 33 26 16 4 50 25 77 46 l47 40 143 -3
c160 -3 261 11 321 44 47 26 99 115 120 207 7 30 21 70 30 89 10 18 24 69 33
113 8 45 23 97 33 117 11 20 27 83 36 141 9 58 25 122 35 142 10 20 25 84 34
141 8 58 23 124 34 148 12 24 30 99 41 167 11 67 26 135 34 150 7 15 16 41 19
57 28 147 26 142 67 170 34 24 47 27 90 23 68 -7 90 -28 90 -88 0 -67 -27
-216 -46 -252 -9 -17 -25 -85 -35 -152 -11 -66 -26 -130 -33 -141 -14 -22 -41
-163 -52 -275 -5 -57 -3 -68 16 -93 45 -57 99 -78 238 -92 l127 -13 35 28 c35
27 59 58 126 158 50 77 150 271 158 309 4 18 16 43 26 55 10 13 23 43 29 66 7
23 20 57 30 75 11 17 22 48 26 67 4 19 17 53 30 75 12 22 26 58 29 80 4 21 16
56 27 77 10 20 25 64 33 95 7 32 21 73 30 90 9 18 23 62 32 99 8 37 23 83 33
103 10 20 24 68 31 106 6 39 20 82 30 96 10 14 23 61 30 105 7 43 23 110 35
147 13 37 31 108 39 157 9 49 24 110 35 137 10 26 27 99 36 160 21 134 28 146
157 250 74 60 248 248 248 268 0 4 9 19 21 33 28 36 89 135 89 144 0 4 11 24
25 44 14 20 25 44 25 53 0 9 10 32 22 51 12 19 30 62 39 95 10 33 26 87 37
120 12 33 29 105 39 159 14 77 22 102 38 110 11 6 21 11 22 11 0 0 7 62 13
138 11 128 11 139 -5 157 -13 15 -20 47 -26 121 -5 55 -13 108 -18 117 -5 9
-12 42 -16 72 -4 30 -11 60 -16 65 -4 6 -12 29 -18 50 -15 62 -47 145 -60 158
-6 6 -11 15 -11 20 0 9 -29 76 -52 121 -21 39 -50 133 -57 181 -5 28 -14 71
-21 98 -12 45 -11 50 16 103 28 55 65 94 89 94 7 0 28 -17 45 -37 l33 -37 -7
-88 c-7 -101 -4 -104 76 -69 48 21 79 62 104 135 11 31 24 50 39 56 20 8 23
18 30 93 6 77 5 87 -13 105 -15 15 -20 40 -26 122 -4 57 -11 111 -17 121 -5
10 -9 47 -9 82 0 36 -7 84 -15 107 -8 23 -15 62 -15 85 0 23 -7 62 -15 85 -8
23 -15 61 -15 84 0 22 -7 63 -15 90 -8 27 -15 66 -15 86 0 21 -7 54 -15 73 -8
20 -15 58 -15 84 -1 26 -7 59 -15 73 -8 14 -15 45 -15 70 -1 25 -7 63 -15 85
-30 82 -5 396 41 531 13 39 31 117 40 175 20 134 32 190 46 207 7 7 14 51 16
98 7 136 -24 215 -90 229 -16 4 -45 21 -64 38 l-35 30 2 86 c2 87 -17 197 -44
256 -8 16 -25 53 -37 80 -11 28 -25 57 -30 65 -5 8 -33 62 -61 120 -29 58 -67
127 -83 155 -17 27 -44 75 -61 106 -37 70 -77 137 -124 209 -37 57 -53 83 -79
135 -9 17 -18 32 -22 35 -8 6 -57 79 -106 155 -21 33 -47 72 -58 86 -12 14
-28 36 -36 49 -8 12 -37 49 -64 83 -26 34 -55 73 -64 87 -17 27 -97 131 -204
267 -37 47 -98 117 -136 156 -38 40 -97 104 -132 142 -93 104 -413 417 -470
461 -28 21 -50 41 -50 45 0 4 -24 24 -52 46 -29 22 -72 57 -95 78 -24 21 -54
45 -67 54 -13 9 -60 44 -105 78 -44 34 -94 69 -111 78 -17 9 -34 23 -37 31 -3
7 -11 14 -18 14 -7 0 -29 14 -50 30 -21 17 -42 30 -48 30 -6 0 -19 8 -29 17
-19 17 -52 38 -138 88 -25 15 -63 37 -85 51 -22 13 -62 35 -90 49 -57 29 -94
50 -145 81 -19 11 -48 24 -64 28 -16 4 -43 18 -59 32 -16 13 -38 24 -49 24
-11 0 -41 11 -67 24 -88 46 -176 85 -206 92 -16 4 -48 17 -70 29 -22 13 -57
26 -78 29 -21 4 -52 16 -70 26 -18 10 -54 24 -81 30 -27 6 -67 19 -90 30 -23
10 -72 26 -109 34 -37 9 -81 23 -97 31 -16 8 -62 22 -102 29 -40 8 -95 23
-123 34 -27 11 -97 27 -155 37 -58 10 -126 26 -152 36 -25 10 -142 32 -260 49
-242 35 -246 36 -267 61 -14 16 -56 22 -296 43 -462 42 -454 41 -461 21z"/>
</g>
</svg>
