<svg version="1.1" id="Layer_1" xmlns="http://www.w3.org/2000/svg" xmlns:xlink="http://www.w3.org/1999/xlink" x="0px" y="0px"
	 viewBox="0 0 512 512" style="enable-background:new 0 0 300.003 300.003;" xml:space="preserve">
<g>
	<g>
		<path d="M256,1C115.167,1,1,115.167,1,256s114.167,255,255,255s255-114.167,255-255S396.833,1,256,1z M408.577,353.699  c0,12.208-9.907,22.116-22.116,22.116H182.754v26.079c0,4.666-5.241,7.478-9.14,4.858l-71.525-48.194  c-3.452-2.365-3.452-7.478,0-9.779l71.589-48.13c3.899-2.621,9.14,0.128,9.14,4.858v26.015h181.528V244.5l44.231-8.347V353.699z   M409.855,163.159l-71.525,48.194c-3.899,2.621-9.14-0.128-9.14-4.858v-26.079H147.599V268.5l-44.231,7.283V158.237  c0-12.208,9.907-22.116,22.116-22.116h203.772v-26.015c0-4.666,5.241-7.478,9.14-4.858l71.525,48.13  C413.371,155.744,413.371,160.858,409.855,163.159z"/>
	</g>
</g>
<g>
</g>
<g>
</g>
<g>
</g>
<g>
</g>
<g>
</g>
<g>
</g>
<g>
</g>
<g>
</g>
<g>
</g>
<g>
</g>
<g>
</g>
<g>
</g>
<g>
</g>
<g>
</g>
<g>
</g>
</svg>
