<svg id="svg" version="1.1" xmlns="http://www.w3.org/2000/svg" xmlns:xlink="http://www.w3.org/1999/xlink" width="400" height="75" viewBox="0, 0, 400,75"><g id="svgg"><path id="path0" d="M298.062 0.792 C 297.921 1.685,297.912 3.747,298.045 4.750 C 298.093 5.117,298.140 5.582,298.150 5.784 C 298.159 5.986,298.335 6.327,298.542 6.542 C 298.748 6.756,298.945 7.041,298.979 7.174 C 299.013 7.308,299.101 7.670,299.174 7.979 C 299.248 8.288,299.388 8.622,299.487 8.720 C 299.740 8.973,299.710 10.455,299.427 11.698 C 299.244 12.504,299.192 13.992,299.205 18.060 L 299.223 23.370 299.641 23.977 C 300.090 24.628,300.399 27.412,300.049 27.644 C 299.511 27.999,299.327 30.211,299.750 31.224 C 300.075 32.002,300.068 33.287,299.734 34.272 C 299.588 34.703,299.436 35.324,299.396 35.653 C 299.357 35.981,299.214 36.333,299.079 36.435 C 298.788 36.654,298.752 37.708,299.022 38.140 C 299.163 38.366,299.161 38.841,299.013 40.013 C 298.904 40.877,298.810 41.977,298.804 42.458 C 298.797 42.940,298.715 43.333,298.621 43.333 C 298.509 43.333,298.489 43.873,298.561 44.905 C 298.633 45.924,298.611 46.515,298.500 46.583 C 298.405 46.642,298.372 46.761,298.425 46.848 C 298.479 46.934,298.558 47.211,298.602 47.461 C 298.645 47.712,298.790 48.217,298.925 48.583 C 299.059 48.950,299.195 49.558,299.226 49.933 C 299.257 50.309,299.336 50.703,299.402 50.809 C 299.467 50.915,299.591 51.657,299.678 52.459 C 299.869 54.229,300.093 55.225,300.315 55.299 C 300.407 55.330,300.440 55.463,300.389 55.594 C 300.339 55.726,300.381 55.833,300.482 55.833 C 300.584 55.833,300.667 55.913,300.667 56.010 C 300.667 56.107,300.592 56.140,300.500 56.083 C 300.408 56.027,300.330 56.079,300.326 56.198 C 300.322 56.318,300.279 56.805,300.230 57.280 C 300.138 58.178,300.468 59.817,300.926 60.735 C 301.062 61.008,301.212 61.460,301.260 61.741 C 301.307 62.021,301.440 62.325,301.554 62.417 C 301.669 62.508,301.737 62.733,301.705 62.917 C 301.658 63.198,301.678 63.211,301.838 63.000 C 301.988 62.803,302.008 62.866,301.933 63.300 C 301.881 63.602,301.897 63.813,301.969 63.769 C 302.041 63.724,302.201 64.040,302.324 64.469 C 302.447 64.899,302.663 65.384,302.804 65.547 C 303.181 65.983,303.541 69.523,303.303 70.466 C 303.201 70.871,303.175 71.522,303.242 71.966 C 303.307 72.397,303.383 72.900,303.409 73.083 C 303.436 73.267,303.478 73.454,303.503 73.500 C 303.563 73.608,303.611 73.970,303.642 74.542 L 303.667 75.000 317.250 75.000 L 330.833 75.000 330.833 74.609 C 330.833 74.395,330.690 73.801,330.514 73.290 C 330.338 72.779,330.231 72.324,330.276 72.279 C 330.321 72.234,330.244 71.978,330.105 71.709 C 329.850 71.215,329.129 68.532,329.086 67.917 C 329.051 67.409,328.482 65.331,328.174 64.583 C 327.743 63.538,326.917 58.507,326.751 55.917 C 326.698 55.092,326.552 54.042,326.426 53.583 C 326.301 53.125,326.145 52.007,326.081 51.100 C 326.017 50.192,325.861 48.842,325.734 48.100 C 325.288 45.494,325.020 43.067,324.988 41.366 C 324.971 40.421,324.860 39.146,324.742 38.532 C 324.273 36.098,324.142 35.396,324.070 34.917 C 324.028 34.642,323.917 33.929,323.822 33.333 C 323.189 29.356,323.020 27.921,322.926 25.750 C 322.879 24.650,322.791 22.700,322.731 21.417 C 322.598 18.543,322.628 16.012,322.835 12.750 C 322.922 11.375,322.994 9.050,322.994 7.583 C 322.995 6.117,323.036 3.810,323.086 2.458 L 323.177 0.000 310.682 0.000 L 298.187 0.000 298.062 0.792 M328.764 1.375 C 328.590 3.595,328.536 16.341,328.690 19.333 C 329.116 27.669,329.301 29.603,330.853 41.917 C 331.146 44.241,331.530 46.364,332.826 52.833 C 333.698 57.188,335.052 62.677,335.733 64.619 C 336.135 65.766,336.387 66.625,337.738 71.437 C 338.153 72.915,338.567 74.321,338.659 74.562 L 338.825 75.000 364.163 75.000 C 379.884 75.000,389.500 74.940,389.500 74.843 C 389.500 74.757,389.425 74.640,389.333 74.583 C 389.242 74.527,389.167 74.326,389.167 74.136 C 389.167 73.850,389.208 73.827,389.417 74.000 C 389.554 74.114,389.667 74.344,389.667 74.511 C 389.667 74.913,389.976 75.090,390.102 74.761 C 390.232 74.422,391.144 74.414,391.273 74.750 C 391.355 74.963,392.002 75.000,395.684 75.000 L 400.000 75.000 400.000 37.500 L 400.000 0.000 383.428 0.000 L 366.857 0.000 366.803 0.375 C 366.757 0.699,366.666 0.743,366.125 0.696 C 365.585 0.648,365.500 0.688,365.500 0.990 C 365.500 1.181,365.377 1.781,365.227 2.322 C 364.959 3.283,364.961 3.315,365.310 3.758 C 365.947 4.568,365.567 5.767,364.648 5.849 C 363.115 5.987,362.667 5.540,362.667 3.874 C 362.667 3.329,362.584 2.647,362.484 2.359 C 362.340 1.947,362.358 1.668,362.567 1.055 C 362.714 0.625,362.833 0.212,362.833 0.137 C 362.833 0.062,355.192 0.000,345.853 0.000 L 328.873 0.000 328.764 1.375 M353.275 12.791 C 353.395 13.817,352.873 14.434,352.426 13.796 C 352.099 13.329,352.091 12.833,352.411 12.833 C 352.545 12.833,352.739 12.677,352.841 12.486 C 353.063 12.070,353.203 12.169,353.275 12.791 M149.585 22.208 C 149.705 22.598,149.912 23.179,150.044 23.500 C 150.509 24.630,150.555 24.752,150.573 24.917 C 150.583 25.008,150.496 25.182,150.379 25.304 C 150.088 25.605,150.102 26.500,150.397 26.500 C 151.010 26.500,151.783 29.209,151.327 29.757 C 151.199 29.912,151.190 30.000,151.302 30.000 C 151.579 30.000,151.704 30.620,151.502 30.996 C 151.363 31.256,151.368 31.328,151.523 31.294 C 151.828 31.228,152.194 32.085,152.070 32.575 C 152.012 32.809,151.841 33.006,151.690 33.013 C 151.540 33.020,151.790 33.157,152.246 33.318 L 153.076 33.609 152.613 33.913 C 152.358 34.080,152.186 34.310,152.230 34.425 C 152.274 34.540,152.072 34.923,151.780 35.277 C 150.995 36.231,150.774 36.674,150.980 36.880 C 151.091 36.991,151.118 37.610,151.053 38.592 C 150.918 40.651,150.814 40.600,154.566 40.340 C 160.502 39.928,160.277 40.085,160.108 36.500 C 159.814 30.277,156.316 24.733,151.065 22.167 C 149.353 21.331,149.314 21.332,149.585 22.208 M225.519 22.781 C 225.321 22.998,225.321 23.059,225.519 23.199 C 225.693 23.322,225.661 23.343,225.393 23.285 C 225.133 23.228,224.985 23.318,224.851 23.611 C 224.614 24.132,224.618 24.167,224.917 24.167 C 225.054 24.167,225.158 24.110,225.147 24.042 C 225.042 23.380,225.656 23.307,226.258 23.909 C 226.765 24.416,226.773 24.635,226.292 24.828 C 226.085 24.911,225.985 24.984,226.067 24.989 C 226.150 24.995,226.084 25.148,225.920 25.329 C 225.756 25.511,225.552 25.615,225.465 25.562 C 225.379 25.509,225.405 25.620,225.523 25.808 C 225.738 26.152,225.917 26.140,225.917 25.780 C 225.917 25.674,226.057 25.561,226.228 25.528 C 226.422 25.491,226.497 25.537,226.427 25.651 C 226.358 25.761,226.453 25.833,226.667 25.833 C 226.861 25.833,226.978 25.765,226.926 25.683 C 226.798 25.474,228.191 25.666,228.490 25.898 C 229.107 26.374,227.318 24.023,226.391 23.138 C 225.824 22.597,225.723 22.555,225.519 22.781 M227.000 27.474 C 227.000 27.539,226.693 27.563,226.317 27.527 C 225.664 27.465,225.643 27.477,225.826 27.819 C 226.055 28.248,227.910 28.308,228.070 27.892 C 228.117 27.768,228.139 27.667,228.119 27.667 C 228.098 27.667,227.838 27.597,227.541 27.512 C 227.243 27.426,227.000 27.410,227.000 27.474 M223.093 28.129 C 223.061 28.162,222.805 28.195,222.525 28.202 C 221.980 28.218,222.043 28.833,222.589 28.833 C 222.723 28.833,222.833 28.902,222.833 28.986 C 222.833 29.071,222.876 29.251,222.929 29.388 C 223.120 29.886,222.017 29.769,221.624 29.250 C 221.554 29.158,221.531 29.372,221.572 29.726 C 221.612 30.079,221.669 30.383,221.698 30.401 C 222.463 30.887,222.739 31.000,223.161 31.000 C 223.668 31.000,223.828 30.786,223.482 30.572 C 223.201 30.399,223.656 30.172,224.292 30.169 C 224.590 30.168,224.833 30.242,224.833 30.333 C 224.833 30.425,224.776 30.500,224.706 30.500 C 224.636 30.500,224.505 30.669,224.415 30.875 C 224.293 31.152,224.110 31.250,223.716 31.250 C 222.945 31.250,222.563 31.795,223.029 32.229 C 223.245 32.431,223.337 32.682,223.289 32.938 C 223.247 33.155,223.265 33.333,223.328 33.333 C 223.510 33.333,223.811 32.201,223.721 31.856 C 223.663 31.635,223.752 31.516,224.028 31.442 C 224.709 31.260,225.044 31.312,224.940 31.583 C 224.767 32.034,226.004 31.901,226.579 31.407 C 226.899 31.131,227.194 31.013,227.412 31.071 C 227.598 31.121,227.811 31.163,227.885 31.164 C 227.959 31.166,227.973 31.242,227.917 31.333 C 227.795 31.529,227.999 31.549,228.283 31.368 C 228.403 31.292,228.427 31.151,228.343 31.016 C 228.267 30.892,228.121 30.842,228.019 30.905 C 227.917 30.968,227.833 30.948,227.833 30.861 C 227.833 30.774,228.007 30.659,228.219 30.606 C 228.672 30.492,229.371 29.926,229.231 29.786 C 229.178 29.733,229.036 29.727,228.917 29.773 C 228.798 29.819,228.651 29.776,228.590 29.678 C 228.525 29.572,228.637 29.495,228.865 29.487 C 229.601 29.461,228.012 28.873,226.878 28.752 C 225.655 28.621,225.568 28.658,225.829 29.194 C 226.010 29.565,226.006 29.568,225.759 29.260 C 225.617 29.082,225.500 28.882,225.500 28.815 C 225.500 28.380,223.432 27.790,223.093 28.129 M226.037 30.493 C 225.997 30.759,225.850 31.022,225.709 31.076 C 225.324 31.224,225.311 31.125,225.613 30.356 C 225.907 29.608,226.155 29.687,226.037 30.493 M229.519 30.775 C 229.348 31.150,229.358 31.193,229.591 31.103 C 229.739 31.046,229.892 31.000,229.930 31.000 C 229.969 31.000,230.000 30.892,230.000 30.760 C 230.000 30.326,229.719 30.335,229.519 30.775 M227.152 31.934 C 227.046 32.062,226.850 32.167,226.716 32.167 C 226.395 32.167,226.525 32.543,226.863 32.593 C 227.264 32.651,228.008 33.186,227.910 33.344 C 227.862 33.422,227.681 33.432,227.507 33.368 C 226.968 33.167,224.453 33.387,224.368 33.643 C 224.312 33.813,224.414 33.842,224.785 33.761 C 225.268 33.655,225.281 33.670,225.486 34.584 C 225.742 35.729,225.553 36.086,224.772 35.929 C 224.157 35.806,222.500 36.174,222.500 36.433 C 222.500 36.538,222.838 36.718,223.250 36.833 C 224.243 37.111,224.262 37.443,223.279 37.340 C 223.022 37.313,223.003 37.361,223.158 37.650 C 223.317 37.947,223.444 37.978,224.115 37.886 C 224.798 37.793,224.877 37.814,224.781 38.063 C 224.658 38.382,225.130 38.661,225.308 38.375 C 225.370 38.277,225.741 38.236,226.167 38.280 C 226.579 38.323,227.379 38.349,227.944 38.338 C 228.903 38.319,229.392 38.508,229.003 38.748 C 228.751 38.904,228.797 39.117,229.107 39.236 C 229.258 39.294,229.502 39.237,229.649 39.109 C 229.796 38.981,230.029 38.829,230.167 38.771 C 230.304 38.712,230.192 38.709,229.918 38.762 C 229.644 38.816,229.364 38.948,229.296 39.055 C 229.204 39.199,229.171 39.195,229.169 39.038 C 229.168 38.922,229.354 38.741,229.582 38.637 C 230.119 38.392,230.768 37.333,230.488 37.159 C 230.352 37.075,230.422 36.949,230.710 36.761 C 231.218 36.428,231.155 35.973,230.544 35.573 L 230.124 35.298 230.588 34.899 C 230.843 34.679,231.113 34.500,231.187 34.500 C 231.262 34.500,231.280 34.387,231.227 34.250 C 231.174 34.112,231.043 34.000,230.936 34.000 C 230.829 34.000,230.620 33.859,230.473 33.687 C 230.325 33.515,230.104 33.340,229.980 33.299 C 229.849 33.255,229.770 33.022,229.789 32.737 L 229.822 32.250 229.572 32.708 C 229.330 33.153,229.000 33.327,229.000 33.011 C 229.000 32.925,228.794 32.832,228.542 32.803 C 228.187 32.762,228.072 32.651,228.032 32.309 C 227.973 31.801,227.448 31.577,227.152 31.934 M224.167 32.306 C 224.167 32.540,224.354 32.648,224.599 32.554 C 224.727 32.505,224.790 32.398,224.739 32.316 C 224.623 32.128,224.167 32.119,224.167 32.306 M222.084 32.832 C 222.025 32.928,222.157 32.983,222.396 32.964 C 222.623 32.945,222.773 32.870,222.728 32.798 C 222.614 32.613,222.206 32.635,222.084 32.832 M159.835 35.503 C 160.140 37.720,159.934 39.368,159.360 39.301 C 158.869 39.244,158.896 39.567,159.066 35.750 C 159.174 33.313,159.518 33.203,159.835 35.503 M369.664 35.574 C 369.659 36.232,369.378 36.447,369.157 35.962 C 368.867 35.327,369.095 34.448,369.430 34.907 C 369.560 35.085,369.666 35.385,369.664 35.574 M284.553 37.182 C 284.523 38.991,284.669 39.223,285.321 38.394 C 285.947 37.599,285.699 36.130,284.865 35.684 C 284.606 35.545,284.578 35.682,284.553 37.182 M246.413 37.240 C 246.409 37.820,246.454 37.941,246.621 37.802 C 246.849 37.613,246.895 37.188,246.732 36.764 C 246.550 36.289,246.417 36.487,246.413 37.240 M377.043 38.744 C 377.746 39.037,377.938 39.707,377.667 40.917 C 377.160 43.179,376.323 43.232,376.072 41.019 C 375.977 40.174,376.206 38.500,376.418 38.500 C 376.441 38.500,376.722 38.610,377.043 38.744 M228.833 39.994 L 228.417 40.104 228.895 40.227 C 229.402 40.357,229.664 40.253,229.406 40.022 C 229.320 39.946,229.063 39.933,228.833 39.994 M158.667 40.523 C 158.162 40.593,156.325 40.813,154.583 41.010 C 150.142 41.515,150.142 41.707,154.583 41.595 C 159.001 41.483,159.621 41.408,159.762 40.962 C 159.917 40.474,159.684 40.381,158.667 40.523 M229.167 40.683 C 228.617 40.951,227.044 40.983,226.642 40.735 C 226.564 40.687,226.500 40.730,226.500 40.831 C 226.500 40.932,226.369 40.993,226.208 40.966 C 225.988 40.929,225.918 41.029,225.923 41.375 C 225.927 41.627,225.871 41.833,225.798 41.833 C 225.726 41.833,225.685 41.922,225.708 42.031 C 225.748 42.220,225.451 42.287,224.167 42.376 C 223.715 42.408,223.594 42.483,223.632 42.708 C 223.663 42.891,223.575 43.000,223.398 43.000 C 223.138 43.000,223.139 43.027,223.417 43.333 C 223.711 43.659,223.708 43.667,223.286 43.667 C 222.615 43.667,222.600 43.950,223.264 44.075 C 223.748 44.166,223.822 44.229,223.665 44.419 C 223.177 45.007,224.242 45.266,225.293 44.815 C 225.698 44.641,226.116 44.552,226.220 44.617 C 226.563 44.828,227.000 44.783,227.000 44.536 C 227.000 44.378,227.113 44.324,227.328 44.380 C 227.548 44.438,227.687 44.366,227.752 44.161 C 227.806 43.991,228.083 43.805,228.381 43.740 C 229.162 43.568,230.053 42.848,229.825 42.573 C 229.634 42.343,230.182 41.904,230.395 42.117 C 230.453 42.175,230.500 42.075,230.500 41.894 C 230.500 41.714,230.578 41.488,230.674 41.392 C 231.096 40.971,229.815 40.367,229.167 40.683 M228.930 41.374 C 228.976 41.420,228.860 41.498,228.673 41.547 C 228.486 41.595,228.333 41.572,228.333 41.495 C 228.333 41.418,228.165 41.324,227.958 41.285 C 227.752 41.246,227.868 41.232,228.215 41.253 C 228.562 41.274,228.884 41.329,228.930 41.374 M385.833 42.187 C 385.833 43.387,385.387 43.825,384.910 43.096 C 384.667 42.725,384.668 42.647,384.929 42.138 C 385.449 41.123,385.833 41.145,385.833 42.187 M155.439 42.512 C 151.931 42.851,152.001 42.832,152.520 43.317 L 152.896 43.667 152.520 43.667 C 151.910 43.667,151.535 43.962,151.410 44.540 C 151.346 44.839,151.214 45.233,151.116 45.417 C 151.018 45.600,150.909 46.049,150.873 46.414 C 150.838 46.779,150.738 47.164,150.652 47.268 C 150.565 47.372,150.542 47.582,150.600 47.733 C 150.658 47.884,150.587 48.513,150.442 49.129 C 150.148 50.376,149.792 52.681,149.879 52.768 C 150.000 52.889,152.116 51.779,153.073 51.093 C 155.808 49.133,159.305 44.260,159.331 42.375 C 159.334 42.129,159.437 42.125,155.439 42.512 M224.668 44.532 C 224.132 44.730,223.815 44.578,224.333 44.372 C 224.563 44.281,224.819 44.247,224.903 44.297 C 224.988 44.347,224.882 44.453,224.668 44.532 M226.740 49.245 C 226.562 49.379,226.217 49.492,225.972 49.495 C 225.224 49.504,224.966 49.657,225.239 49.930 C 225.578 50.269,225.381 50.749,224.779 51.049 C 224.420 51.227,224.347 51.315,224.552 51.323 C 224.736 51.329,224.807 51.408,224.734 51.526 C 224.651 51.661,224.733 51.688,225.007 51.617 C 225.223 51.560,225.499 51.596,225.620 51.697 C 225.792 51.840,225.817 51.819,225.735 51.605 C 225.660 51.410,225.700 51.356,225.871 51.422 C 226.157 51.532,226.568 51.199,227.487 50.115 C 228.282 49.177,228.341 48.942,227.722 49.177 C 227.418 49.293,227.244 49.291,227.171 49.173 C 227.101 49.060,226.952 49.085,226.740 49.245 M392.667 63.655 C 392.667 63.876,391.942 64.984,391.792 64.993 C 391.601 65.004,391.643 64.534,391.844 64.410 C 391.941 64.350,392.089 64.121,392.173 63.900 C 392.320 63.513,392.667 63.341,392.667 63.655 M372.346 66.046 C 372.325 66.245,372.097 66.207,372.025 65.992 C 371.988 65.882,372.048 65.822,372.158 65.858 C 372.268 65.895,372.353 65.979,372.346 66.046 M392.833 72.486 C 392.833 73.226,392.671 73.500,392.232 73.500 C 391.740 73.500,391.685 72.920,392.125 72.369 C 392.534 71.858,392.833 71.907,392.833 72.486 " stroke="none" fill="#eea428" fill-rule="evenodd"></path><path id="path1" d="M0.000 37.500 L 0.000 75.000 133.167 75.000 C 275.095 75.000,267.105 75.044,265.917 74.265 C 265.687 74.115,265.500 73.882,265.500 73.746 C 265.500 73.611,265.387 73.500,265.250 73.500 C 265.112 73.500,265.000 73.387,265.000 73.250 C 265.000 73.112,264.936 73.000,264.857 73.000 C 264.778 73.000,264.666 72.535,264.606 71.968 C 264.547 71.400,264.441 70.894,264.371 70.843 C 264.183 70.705,263.396 68.234,263.173 67.083 C 263.067 66.533,262.935 65.971,262.880 65.833 C 262.825 65.696,262.793 65.525,262.808 65.455 C 262.823 65.384,262.864 64.934,262.899 64.455 C 262.933 63.975,263.010 63.466,263.070 63.323 C 263.446 62.420,263.116 59.167,262.649 59.167 C 262.567 59.167,262.500 59.007,262.500 58.811 C 262.500 58.267,261.854 57.333,261.477 57.333 C 261.295 57.333,261.190 57.264,261.243 57.178 C 261.296 57.093,261.258 56.973,261.159 56.912 C 261.060 56.851,260.908 56.613,260.821 56.384 C 260.734 56.155,260.519 55.930,260.343 55.884 C 260.167 55.838,259.911 55.520,259.774 55.177 C 259.636 54.834,259.256 54.278,258.929 53.940 C 258.601 53.603,258.333 53.215,258.333 53.078 C 258.333 52.766,257.992 52.150,257.683 51.904 C 257.543 51.792,257.503 51.630,257.584 51.500 C 257.676 51.350,257.653 51.322,257.510 51.411 C 257.365 51.500,257.323 51.445,257.372 51.228 C 257.411 51.057,257.268 50.678,257.054 50.385 C 256.840 50.093,256.731 49.813,256.811 49.764 C 257.260 49.486,257.380 46.830,256.957 46.524 C 256.785 46.400,256.686 46.191,256.736 46.060 C 256.786 45.928,256.716 45.778,256.581 45.726 C 256.246 45.597,256.269 45.171,256.625 44.893 C 256.896 44.682,256.893 44.674,256.583 44.774 C 256.310 44.863,256.287 44.842,256.458 44.658 C 256.573 44.534,256.667 44.261,256.667 44.050 C 256.667 43.759,256.761 43.667,257.059 43.667 C 257.461 43.667,258.333 42.988,258.333 42.675 C 258.333 42.579,258.596 42.500,258.917 42.500 C 259.789 42.500,260.293 41.897,260.444 40.672 C 260.484 40.353,260.600 40.041,260.703 39.977 C 260.836 39.896,260.812 39.742,260.622 39.452 C 260.474 39.227,260.395 38.883,260.446 38.688 C 260.513 38.433,260.462 38.333,260.265 38.333 C 260.095 38.333,259.954 38.145,259.892 37.833 C 259.837 37.558,259.689 37.333,259.563 37.333 C 259.436 37.333,259.333 37.216,259.333 37.073 C 259.333 36.931,259.265 36.856,259.182 36.907 C 259.099 36.958,259.071 36.849,259.119 36.665 C 259.196 36.368,258.568 35.171,258.333 35.168 C 258.213 35.166,258.283 33.485,258.421 33.042 C 258.486 32.835,258.605 32.667,258.686 32.667 C 258.767 32.667,258.833 32.560,258.833 32.431 C 258.833 32.301,258.925 32.164,259.038 32.126 C 259.167 32.083,259.229 31.772,259.208 31.280 C 259.189 30.853,259.249 30.305,259.341 30.064 C 259.456 29.759,259.451 29.558,259.321 29.402 C 259.043 29.067,259.037 27.016,259.314 26.845 C 259.501 26.730,259.500 26.692,259.311 26.617 C 259.149 26.553,259.144 26.523,259.292 26.513 C 259.406 26.506,259.503 26.331,259.506 26.125 C 259.512 25.754,259.514 25.754,259.760 26.167 L 260.007 26.583 259.985 26.167 C 259.938 25.271,259.998 24.906,260.154 25.152 C 260.280 25.351,260.346 25.345,260.580 25.110 C 260.821 24.870,260.823 24.833,260.600 24.833 C 260.443 24.833,260.380 24.739,260.438 24.589 C 260.489 24.454,260.581 24.354,260.641 24.366 C 261.024 24.443,261.667 24.092,261.667 23.805 C 261.667 23.627,261.742 23.527,261.833 23.583 C 261.925 23.640,262.000 23.538,262.000 23.357 C 262.000 23.176,261.906 22.990,261.792 22.943 C 261.629 22.877,261.633 22.824,261.808 22.701 C 261.979 22.581,261.929 22.518,261.599 22.436 C 261.361 22.376,261.167 22.215,261.167 22.078 C 261.167 21.749,260.828 21.159,260.426 20.787 C 260.144 20.527,260.124 20.401,260.274 19.840 C 260.369 19.484,260.430 18.775,260.409 18.263 C 260.388 17.752,260.425 17.333,260.491 17.333 C 260.557 17.333,260.611 17.122,260.611 16.863 C 260.611 16.471,261.386 14.614,261.667 14.333 C 261.969 14.031,262.429 12.515,262.314 12.202 C 262.241 12.005,262.243 11.806,262.318 11.760 C 262.393 11.713,262.446 10.998,262.435 10.171 C 262.425 9.344,262.466 8.667,262.527 8.667 C 262.625 8.667,262.665 8.105,262.732 5.792 C 262.742 5.448,262.806 5.167,262.875 5.167 C 262.944 5.167,263.000 5.017,263.000 4.833 C 263.000 4.650,262.906 4.499,262.792 4.497 C 262.657 4.496,262.645 4.451,262.756 4.372 C 262.956 4.230,262.956 3.880,262.756 3.436 C 262.671 3.249,262.685 3.010,262.789 2.843 C 262.885 2.689,263.052 2.118,263.160 1.573 C 263.268 1.029,263.394 0.452,263.439 0.292 C 263.518 0.014,257.169 0.000,131.761 0.000 L 0.000 0.000 0.000 37.500 M216.167 16.780 C 229.656 19.575,236.585 35.801,229.446 47.877 C 226.021 53.669,219.723 57.797,214.168 57.890 L 212.586 57.917 212.475 56.917 C 212.415 56.367,212.323 54.695,212.272 53.203 C 212.221 51.710,212.142 50.429,212.097 50.356 C 212.053 50.284,211.971 49.033,211.917 47.576 C 211.862 46.120,211.789 44.900,211.755 44.866 C 211.720 44.831,211.788 44.529,211.905 44.193 C 212.087 43.669,212.103 43.314,211.984 42.417 C 211.972 42.325,211.971 41.912,211.981 41.500 C 211.991 41.087,211.959 40.225,211.911 39.583 C 211.824 38.444,211.674 31.407,211.679 28.751 C 211.680 28.018,211.740 27.360,211.812 27.288 C 211.884 27.216,211.892 26.765,211.830 26.287 C 211.645 24.857,211.832 18.186,212.094 16.886 C 212.211 16.305,213.690 16.267,216.167 16.780 M146.753 20.256 C 151.957 21.331,156.801 25.286,158.838 30.126 L 159.312 31.250 160.864 31.381 C 177.456 32.781,185.167 34.641,185.167 37.243 C 185.167 39.674,175.700 42.156,162.583 43.165 C 159.028 43.439,159.327 43.324,158.713 44.642 C 156.224 49.985,150.689 53.993,145.201 54.429 C 143.249 54.583,143.158 54.400,142.907 49.830 C 142.849 48.778,142.753 47.054,142.693 46.000 L 142.583 44.083 136.167 43.979 C 129.669 43.873,127.329 43.749,120.417 43.149 C 98.185 41.219,93.520 36.365,110.917 33.264 C 114.879 32.558,123.932 31.500,126.012 31.500 L 126.459 31.500 126.205 32.292 C 125.794 33.576,125.797 33.573,124.649 33.710 C 118.177 34.481,113.208 35.852,112.396 37.092 C 110.780 39.559,123.042 41.803,138.333 41.840 C 140.555 41.845,142.414 41.808,142.464 41.758 C 142.514 41.708,141.287 41.666,139.736 41.664 C 130.689 41.657,120.910 40.573,117.069 39.151 C 112.903 37.609,114.910 35.857,122.305 34.579 C 125.567 34.016,125.667 34.020,125.667 34.739 C 125.667 35.343,125.621 35.376,124.500 35.583 C 122.492 35.952,120.333 36.993,120.333 37.591 C 120.333 38.311,123.484 39.289,127.500 39.814 C 131.560 40.346,142.195 40.858,142.397 40.532 C 142.452 40.443,142.509 38.055,142.523 35.227 C 142.562 27.335,142.963 20.412,143.397 20.128 C 143.713 19.920,145.450 19.987,146.753 20.256 M85.083 29.894 C 89.766 31.146,92.088 36.208,89.994 40.597 C 88.945 42.794,86.448 44.583,84.432 44.583 L 83.440 44.583 83.159 43.643 C 83.005 43.126,82.829 41.926,82.768 40.976 C 82.708 40.027,82.615 38.800,82.562 38.250 C 82.434 36.931,82.782 31.977,83.081 30.841 C 83.411 29.592,83.608 29.499,85.083 29.894 M59.554 30.323 C 64.635 32.071,66.082 38.606,62.240 42.448 C 60.673 44.015,58.097 44.945,57.469 44.170 C 56.022 42.383,56.077 31.067,57.538 30.140 C 57.886 29.919,58.557 29.980,59.554 30.323 M160.000 33.656 C 160.000 33.743,160.356 33.860,160.792 33.917 C 167.415 34.792,171.198 36.168,170.495 37.447 C 169.871 38.584,165.662 39.934,161.205 40.428 C 160.231 40.536,159.831 40.720,160.065 40.954 C 160.209 41.098,164.051 40.549,166.894 39.978 C 173.896 38.571,175.156 36.749,170.207 35.189 C 167.091 34.206,160.000 33.142,160.000 33.656 M160.333 37.152 C 160.333 38.260,160.390 39.166,160.458 39.166 C 161.750 39.162,165.167 37.715,165.167 37.172 C 165.167 36.528,163.190 35.609,161.042 35.254 L 160.333 35.137 160.333 37.152 M262.782 35.519 C 262.584 35.634,262.497 35.848,262.530 36.139 C 262.559 36.402,262.503 36.569,262.391 36.548 C 262.287 36.528,262.172 36.766,262.136 37.076 C 262.057 37.751,262.215 38.326,262.398 38.031 C 262.465 37.922,262.665 37.833,262.843 37.833 C 263.231 37.833,263.261 37.547,262.913 37.162 C 262.517 36.725,262.776 36.280,263.357 36.396 C 263.808 36.487,263.833 36.461,263.833 35.912 C 263.833 35.287,263.436 35.138,262.782 35.519 M246.695 36.442 C 247.301 36.991,246.908 38.333,246.141 38.333 C 245.873 38.333,245.833 38.192,245.833 37.250 C 245.833 36.074,246.057 35.865,246.695 36.442 M263.524 37.651 C 263.356 37.755,263.348 37.823,263.493 37.913 C 263.722 38.054,263.894 37.929,263.809 37.682 C 263.774 37.582,263.657 37.569,263.524 37.651 M262.905 38.685 C 262.772 38.900,263.118 39.160,263.542 39.164 C 263.723 39.166,263.833 39.041,263.833 38.833 C 263.833 38.650,263.758 38.500,263.667 38.500 C 263.575 38.500,263.500 38.575,263.500 38.667 C 263.500 38.758,263.383 38.833,263.240 38.833 C 263.097 38.833,263.027 38.758,263.083 38.667 C 263.140 38.575,263.149 38.500,263.103 38.500 C 263.057 38.500,262.968 38.583,262.905 38.685 " stroke="none" fill="#080505" fill-rule="evenodd"></path><path id="path2" d="M283.323 0.375 C 283.318 0.581,283.304 1.331,283.293 2.042 C 283.282 2.752,283.213 3.333,283.140 3.333 C 283.066 3.333,283.035 3.633,283.071 4.000 C 283.124 4.552,283.084 4.667,282.838 4.667 C 282.561 4.667,282.257 5.378,282.286 5.958 C 282.292 6.073,282.230 6.167,282.148 6.167 C 282.067 6.167,282.000 6.245,282.000 6.341 C 282.000 6.437,281.854 6.818,281.676 7.186 C 281.498 7.555,281.393 7.982,281.442 8.136 C 281.509 8.346,281.492 8.362,281.374 8.197 C 281.186 7.935,280.918 8.535,280.754 9.583 C 280.581 10.694,280.317 11.363,280.089 11.275 C 279.954 11.223,279.768 11.518,279.571 12.097 C 279.402 12.594,279.179 13.000,279.075 13.000 C 278.971 13.000,278.743 13.279,278.568 13.620 C 278.393 13.962,278.119 14.388,277.958 14.569 C 277.798 14.749,277.667 14.997,277.667 15.120 C 277.667 15.243,277.561 15.384,277.432 15.434 C 277.177 15.532,277.332 16.399,277.664 16.730 C 277.757 16.824,277.833 17.169,277.833 17.497 C 277.833 17.826,277.975 18.505,278.148 19.006 C 278.345 19.575,278.507 20.667,278.580 21.917 C 278.644 23.017,278.768 24.704,278.856 25.667 C 278.944 26.629,279.041 27.874,279.071 28.434 C 279.100 28.993,279.208 29.706,279.309 30.017 C 279.411 30.329,279.500 31.558,279.508 32.750 C 279.529 36.148,279.643 38.188,279.825 38.407 C 279.917 38.517,279.981 38.890,279.968 39.235 C 279.955 39.581,280.028 39.914,280.130 39.977 C 280.301 40.083,280.552 40.900,280.771 42.068 C 280.821 42.335,280.930 42.733,281.014 42.954 C 281.229 43.518,281.208 43.617,280.859 43.708 C 280.378 43.834,280.306 44.692,280.590 46.901 C 280.977 49.910,280.880 51.744,280.333 51.747 C 280.016 51.749,279.925 51.830,279.953 52.083 C 279.974 52.267,279.949 52.323,279.898 52.208 C 279.792 51.969,279.333 51.924,279.333 52.153 C 279.333 52.237,279.402 52.331,279.487 52.361 C 279.577 52.394,279.583 52.722,279.503 53.159 C 279.427 53.568,279.405 54.144,279.453 54.439 C 279.517 54.834,279.436 55.122,279.146 55.529 C 278.929 55.833,278.774 56.176,278.800 56.291 C 278.826 56.406,278.770 56.500,278.674 56.500 C 278.578 56.500,278.500 56.355,278.500 56.178 C 278.500 55.998,278.347 55.807,278.154 55.746 C 277.726 55.610,277.505 55.795,277.838 56.009 C 277.992 56.108,278.021 56.213,277.917 56.292 C 277.687 56.464,277.630 56.833,277.833 56.833 C 277.925 56.833,278.000 57.097,278.000 57.419 C 278.000 57.827,278.201 58.298,278.667 58.980 C 279.033 59.518,279.333 60.119,279.333 60.318 C 279.333 60.516,279.446 60.850,279.583 61.059 C 279.720 61.268,279.908 62.072,280.001 62.845 C 280.260 64.995,280.360 65.568,280.512 65.758 C 280.589 65.854,280.702 66.248,280.764 66.633 C 280.826 67.018,280.946 67.333,281.032 67.333 C 281.117 67.333,281.165 67.467,281.137 67.631 C 281.078 67.978,281.673 69.500,281.868 69.500 C 281.940 69.500,282.000 69.863,282.000 70.307 C 282.000 71.360,282.349 72.491,282.895 73.207 C 283.136 73.523,283.333 73.868,283.333 73.974 C 283.333 74.080,283.409 74.167,283.501 74.167 C 283.593 74.167,283.832 74.354,284.031 74.583 L 284.393 75.000 294.032 75.000 L 303.671 75.000 303.602 74.208 C 303.564 73.773,303.516 73.417,303.496 73.417 C 303.475 73.417,303.436 73.267,303.409 73.083 C 303.383 72.900,303.307 72.397,303.242 71.966 C 303.175 71.522,303.201 70.871,303.303 70.466 C 303.541 69.523,303.181 65.983,302.804 65.547 C 302.663 65.384,302.447 64.899,302.324 64.469 C 302.201 64.040,302.041 63.724,301.969 63.769 C 301.897 63.813,301.881 63.602,301.933 63.300 C 302.008 62.866,301.988 62.803,301.838 63.000 C 301.678 63.211,301.658 63.198,301.705 62.917 C 301.737 62.733,301.669 62.508,301.554 62.417 C 301.440 62.325,301.307 62.021,301.260 61.741 C 301.212 61.460,301.062 61.008,300.926 60.735 C 300.468 59.817,300.138 58.178,300.230 57.280 C 300.279 56.805,300.322 56.318,300.326 56.198 C 300.330 56.079,300.408 56.027,300.500 56.083 C 300.592 56.140,300.667 56.107,300.667 56.010 C 300.667 55.913,300.584 55.833,300.482 55.833 C 300.381 55.833,300.339 55.726,300.389 55.594 C 300.440 55.463,300.407 55.330,300.315 55.299 C 300.093 55.225,299.869 54.229,299.678 52.459 C 299.591 51.657,299.467 50.915,299.402 50.809 C 299.336 50.703,299.257 50.309,299.226 49.933 C 299.195 49.558,299.059 48.950,298.925 48.583 C 298.790 48.217,298.645 47.712,298.602 47.461 C 298.558 47.211,298.479 46.934,298.425 46.848 C 298.372 46.761,298.405 46.642,298.500 46.583 C 298.611 46.515,298.633 45.924,298.561 44.905 C 298.489 43.873,298.509 43.333,298.621 43.333 C 298.715 43.333,298.797 42.940,298.804 42.458 C 298.810 41.977,298.904 40.877,299.013 40.013 C 299.161 38.841,299.163 38.366,299.022 38.140 C 298.752 37.708,298.788 36.654,299.079 36.435 C 299.214 36.333,299.357 35.981,299.396 35.653 C 299.436 35.324,299.588 34.703,299.734 34.272 C 300.068 33.287,300.075 32.002,299.750 31.224 C 299.327 30.211,299.511 27.999,300.049 27.644 C 300.399 27.412,300.090 24.628,299.641 23.977 L 299.223 23.370 299.205 18.060 C 299.192 13.992,299.244 12.504,299.427 11.698 C 299.710 10.455,299.740 8.973,299.487 8.720 C 299.388 8.622,299.248 8.288,299.174 7.979 C 299.101 7.670,299.013 7.308,298.979 7.174 C 298.945 7.041,298.748 6.756,298.542 6.542 C 298.335 6.327,298.159 5.986,298.150 5.784 C 298.141 5.582,298.089 5.042,298.034 4.583 C 297.895 3.409,297.897 2.252,298.039 1.042 L 298.162 0.000 290.747 0.000 L 283.333 0.000 283.323 0.375 M362.597 0.958 C 362.372 1.704,362.348 2.021,362.487 2.386 C 362.586 2.644,362.667 3.307,362.667 3.860 C 362.667 5.542,363.111 5.988,364.648 5.849 C 365.567 5.767,365.947 4.568,365.310 3.758 C 364.961 3.315,364.959 3.283,365.227 2.322 C 365.377 1.781,365.500 1.181,365.500 0.990 C 365.500 0.688,365.585 0.648,366.125 0.696 C 366.666 0.743,366.757 0.699,366.803 0.375 C 366.856 0.004,366.835 -0.000,364.871 -0.000 L 362.886 -0.000 362.597 0.958 M352.841 12.486 C 352.739 12.677,352.545 12.833,352.411 12.833 C 352.091 12.833,352.099 13.329,352.426 13.796 C 352.767 14.282,352.921 14.264,353.144 13.708 C 353.469 12.903,353.199 11.816,352.841 12.486 M215.833 17.376 C 215.833 17.491,215.907 17.842,215.997 18.155 C 216.106 18.536,216.103 18.792,215.989 18.931 C 215.892 19.047,215.882 19.177,215.965 19.229 C 216.230 19.392,216.069 20.580,215.680 21.333 C 215.609 21.471,215.578 21.733,215.610 21.917 C 215.643 22.100,215.699 22.512,215.735 22.833 C 215.770 23.154,215.813 23.417,215.830 23.417 C 215.847 23.417,215.880 23.585,215.903 23.792 C 215.932 24.055,215.856 24.167,215.649 24.167 C 215.034 24.167,215.186 25.646,215.805 25.683 C 215.974 25.693,215.920 25.752,215.667 25.833 C 215.438 25.907,215.336 25.974,215.440 25.983 C 215.545 25.993,215.678 26.188,215.735 26.417 C 215.795 26.657,215.962 26.835,216.128 26.838 C 216.398 26.843,216.397 26.855,216.121 27.015 C 215.959 27.110,215.870 27.258,215.923 27.344 C 215.976 27.430,215.903 27.500,215.760 27.500 C 215.617 27.500,215.500 27.579,215.500 27.677 C 215.500 27.774,215.425 27.807,215.333 27.750 C 215.242 27.693,215.162 27.708,215.157 27.782 C 215.152 27.856,215.134 28.329,215.117 28.833 L 215.087 29.750 215.835 30.128 C 216.604 30.516,216.929 30.897,216.410 30.803 C 216.249 30.774,216.085 30.844,216.045 30.958 C 216.001 31.086,216.123 31.168,216.361 31.170 L 216.750 31.174 216.345 31.486 C 215.994 31.755,215.979 31.805,216.230 31.857 C 216.497 31.912,216.492 31.948,216.177 32.285 C 215.789 32.700,215.732 32.999,216.042 33.003 C 216.171 33.004,216.187 33.052,216.083 33.128 C 215.823 33.319,215.887 33.720,216.232 34.065 C 216.541 34.374,216.541 34.384,216.232 34.565 C 215.914 34.752,215.765 35.667,216.053 35.667 C 216.135 35.667,216.160 35.777,216.108 35.911 C 216.057 36.046,216.088 36.201,216.177 36.256 C 216.266 36.311,216.288 36.438,216.227 36.537 C 216.163 36.641,216.192 36.671,216.296 36.606 C 216.396 36.545,216.522 36.567,216.576 36.656 C 216.631 36.744,216.505 36.908,216.296 37.019 C 215.849 37.257,215.497 37.694,215.608 37.873 C 215.651 37.943,215.588 38.001,215.468 38.003 C 215.303 38.004,215.309 38.042,215.489 38.157 C 215.688 38.282,215.691 38.353,215.511 38.571 C 215.200 38.945,215.466 39.196,216.568 39.571 C 217.391 39.850,217.461 39.909,217.205 40.104 C 216.944 40.302,216.959 40.323,217.365 40.328 C 217.612 40.331,217.860 40.408,217.917 40.500 C 217.973 40.592,217.894 40.667,217.740 40.667 C 217.555 40.667,217.487 40.766,217.539 40.963 C 217.628 41.306,217.338 41.640,217.038 41.540 C 216.908 41.497,216.871 41.571,216.936 41.741 C 217.000 41.908,216.893 42.137,216.654 42.345 C 216.164 42.770,216.097 43.167,216.515 43.167 C 216.690 43.167,216.833 43.246,216.833 43.343 C 216.833 43.440,216.758 43.473,216.667 43.417 C 216.575 43.360,216.500 43.431,216.500 43.573 C 216.500 43.716,216.417 43.833,216.316 43.833 C 216.027 43.833,215.255 44.556,215.201 44.877 C 215.174 45.036,215.249 45.168,215.368 45.169 C 215.521 45.171,215.511 45.218,215.333 45.333 C 215.125 45.468,215.139 45.498,215.417 45.511 C 215.600 45.519,215.656 45.564,215.541 45.611 C 215.425 45.657,215.374 45.764,215.425 45.848 C 215.477 45.931,215.438 46.000,215.337 46.000 C 215.207 46.000,215.209 46.101,215.344 46.352 C 215.457 46.564,215.488 46.996,215.423 47.436 C 215.348 47.929,215.374 48.167,215.500 48.167 C 215.602 48.167,215.643 48.236,215.590 48.322 C 215.538 48.407,215.582 48.531,215.689 48.597 C 215.828 48.683,215.803 48.776,215.603 48.923 C 215.345 49.111,215.357 49.169,215.745 49.630 C 216.177 50.144,216.296 50.433,216.000 50.250 C 215.908 50.193,215.833 50.220,215.833 50.310 C 215.833 50.399,215.927 50.506,216.042 50.548 C 216.207 50.608,216.208 50.695,216.045 50.970 C 215.932 51.162,215.904 51.357,215.982 51.405 C 216.060 51.453,216.069 51.789,216.003 52.151 C 215.937 52.513,215.941 52.905,216.014 53.022 C 216.086 53.139,216.109 53.292,216.065 53.364 C 216.021 53.435,216.066 53.645,216.165 53.830 C 216.286 54.057,216.289 54.167,216.173 54.167 C 216.078 54.167,216.000 54.246,216.000 54.343 C 216.000 54.440,216.075 54.473,216.167 54.417 C 216.400 54.272,216.375 54.558,216.133 54.800 C 216.023 54.910,216.005 55.000,216.092 55.000 C 216.179 55.000,216.247 55.523,216.243 56.161 C 216.236 57.319,216.237 57.322,216.660 57.232 C 233.276 53.682,237.722 30.870,223.819 20.505 C 221.124 18.495,215.833 16.423,215.833 17.376 M223.345 20.513 C 233.825 27.676,234.979 43.214,225.687 52.049 C 224.012 53.643,221.614 55.257,222.110 54.458 C 222.181 54.344,222.254 53.921,222.272 53.518 C 222.290 53.116,222.394 52.732,222.503 52.665 C 222.640 52.580,222.581 52.459,222.313 52.271 C 222.082 52.109,222.021 52.000,222.161 52.000 C 222.325 52.000,222.297 51.925,222.074 51.755 C 221.759 51.517,221.761 51.510,222.136 51.505 C 222.709 51.497,223.169 51.201,223.058 50.911 C 223.005 50.773,222.839 50.681,222.689 50.705 C 222.502 50.736,222.400 50.607,222.364 50.292 C 222.335 50.040,222.229 49.833,222.128 49.833 C 221.639 49.833,220.702 49.269,220.793 49.031 C 220.861 48.855,220.825 48.819,220.673 48.913 C 220.534 48.999,220.481 48.973,220.526 48.839 C 220.564 48.724,220.349 48.362,220.048 48.033 C 219.726 47.682,219.572 47.392,219.673 47.330 C 219.767 47.271,219.799 47.105,219.743 46.960 C 219.678 46.788,219.746 46.676,219.938 46.639 C 220.122 46.603,220.242 46.419,220.256 46.147 C 220.275 45.800,220.217 45.728,219.971 45.793 C 219.746 45.851,219.688 45.804,219.759 45.620 C 219.813 45.480,220.009 45.326,220.195 45.278 C 220.381 45.229,220.484 45.109,220.424 45.011 C 220.363 44.913,220.393 44.824,220.490 44.813 C 220.828 44.773,220.918 44.744,221.128 44.611 C 221.244 44.537,221.296 44.407,221.243 44.322 C 221.190 44.236,221.208 44.158,221.282 44.148 C 221.356 44.138,221.676 44.100,221.992 44.064 C 222.309 44.028,222.643 43.924,222.734 43.833 C 222.825 43.741,223.091 43.664,223.325 43.661 L 223.750 43.656 223.292 43.253 C 222.775 42.798,222.726 42.667,223.071 42.667 C 223.202 42.667,223.411 42.565,223.536 42.440 C 223.660 42.316,224.041 42.113,224.381 41.990 C 225.064 41.743,225.196 41.500,224.647 41.500 C 224.376 41.500,224.315 41.422,224.382 41.166 C 224.430 40.983,224.400 40.875,224.317 40.927 C 224.233 40.979,224.119 40.904,224.064 40.761 C 224.005 40.607,223.765 40.500,223.480 40.500 C 222.892 40.500,221.667 40.135,221.667 39.959 C 221.667 39.890,221.673 39.785,221.681 39.727 C 221.689 39.668,221.608 39.567,221.501 39.500 C 221.385 39.429,221.516 39.339,221.823 39.277 C 222.108 39.220,222.545 38.984,222.795 38.752 C 223.045 38.520,223.341 38.365,223.453 38.408 C 223.565 38.450,223.700 38.414,223.754 38.326 C 223.809 38.238,223.686 38.167,223.482 38.167 C 223.278 38.167,223.158 38.119,223.216 38.061 C 223.274 38.004,223.244 37.810,223.148 37.632 C 223.005 37.364,223.027 37.314,223.279 37.340 C 224.262 37.443,224.243 37.111,223.250 36.833 C 222.838 36.718,222.500 36.527,222.500 36.408 C 222.500 36.290,222.291 36.147,222.036 36.091 C 221.514 35.977,220.667 35.312,220.667 35.018 C 220.667 34.806,221.144 34.595,222.417 34.244 L 223.250 34.015 222.583 34.016 C 222.217 34.017,221.579 33.952,221.167 33.871 L 220.417 33.725 221.250 33.603 C 222.968 33.351,223.248 33.254,223.301 32.890 C 223.369 32.415,222.912 32.000,222.321 32.000 C 222.053 32.000,221.833 31.935,221.833 31.856 C 221.833 31.646,223.561 31.137,223.870 31.255 C 224.015 31.311,224.182 31.276,224.243 31.178 C 224.358 30.991,224.110 30.947,223.220 30.995 C 222.778 31.019,222.498 30.909,221.698 30.401 C 221.669 30.383,221.612 30.079,221.572 29.726 C 221.531 29.372,221.554 29.158,221.624 29.250 C 222.017 29.769,223.120 29.886,222.929 29.388 C 222.876 29.251,222.833 29.071,222.833 28.986 C 222.833 28.902,222.723 28.833,222.589 28.833 C 222.150 28.833,221.947 28.211,222.380 28.191 C 223.251 28.150,224.008 28.048,224.095 27.960 C 224.220 27.835,222.513 27.472,222.331 27.585 C 222.253 27.633,222.143 27.596,222.085 27.503 C 222.027 27.410,221.816 27.325,221.615 27.314 C 221.276 27.296,221.274 27.289,221.583 27.211 C 222.465 26.988,222.539 26.748,221.875 26.256 C 221.335 25.857,221.392 25.814,222.083 26.101 C 222.175 26.139,222.250 25.945,222.250 25.669 C 222.250 25.193,222.222 25.173,221.710 25.268 C 221.173 25.369,220.651 24.866,221.127 24.708 C 221.230 24.673,221.273 24.537,221.223 24.406 C 221.166 24.257,221.236 24.167,221.409 24.167 C 221.576 24.167,221.639 24.243,221.567 24.359 C 221.499 24.469,221.521 24.507,221.619 24.446 C 221.712 24.389,221.752 24.152,221.708 23.921 C 221.638 23.552,221.687 23.499,222.106 23.488 C 222.523 23.478,222.541 23.458,222.250 23.333 C 222.067 23.255,222.010 23.185,222.125 23.178 C 222.240 23.172,222.333 23.085,222.333 22.985 C 222.333 22.870,222.096 22.837,221.680 22.895 L 221.027 22.986 221.262 22.535 C 221.392 22.287,221.498 21.957,221.499 21.802 C 221.500 21.646,221.579 21.471,221.675 21.412 C 221.794 21.338,221.788 21.229,221.654 21.068 C 221.530 20.919,221.516 20.758,221.614 20.625 C 221.700 20.510,221.756 20.248,221.741 20.042 C 221.699 19.493,221.968 19.572,223.345 20.513 M145.578 21.127 C 145.647 21.627,145.627 22.005,145.529 22.065 C 145.362 22.168,145.406 22.865,145.679 24.484 C 145.769 25.016,145.770 25.459,145.682 25.567 C 145.429 25.876,145.422 26.562,145.666 27.000 C 145.801 27.244,145.912 27.993,145.933 28.803 C 145.952 29.566,146.005 30.227,146.051 30.273 C 146.096 30.318,146.067 30.597,145.986 30.891 C 145.828 31.461,145.880 31.981,146.140 32.446 C 146.236 32.618,146.241 32.887,146.153 33.120 C 146.028 33.447,146.081 33.554,146.485 33.800 L 146.964 34.091 146.565 34.555 C 146.346 34.810,146.167 35.130,146.167 35.265 C 146.167 35.401,146.046 35.695,145.899 35.920 C 145.681 36.253,145.643 36.708,145.691 38.401 L 145.750 40.475 145.271 40.571 C 145.007 40.624,144.520 40.675,144.188 40.686 C 143.630 40.704,143.648 40.718,144.417 40.858 C 144.875 40.942,146.412 40.971,147.833 40.922 C 150.859 40.819,150.783 41.074,147.732 41.262 C 146.644 41.329,145.565 41.441,145.335 41.511 L 144.917 41.638 145.333 41.658 L 145.750 41.678 145.333 41.917 C 144.939 42.142,144.976 42.155,146.000 42.163 C 147.369 42.173,148.057 42.328,147.574 42.516 C 147.331 42.612,147.416 42.652,147.917 42.679 C 148.283 42.699,147.653 42.775,146.517 42.847 C 144.412 42.981,144.175 43.068,144.169 43.708 C 144.167 43.952,144.321 44.000,145.098 44.000 L 146.029 44.000 145.913 45.042 C 145.641 47.477,145.590 52.878,145.833 53.333 C 145.933 53.520,145.963 53.759,145.898 53.863 C 145.679 54.218,147.776 53.861,149.323 53.281 C 152.711 52.008,156.455 48.825,157.938 45.958 C 158.355 45.153,158.068 45.466,157.405 46.541 C 156.608 47.832,154.417 50.136,153.073 51.096 C 152.114 51.781,149.999 52.888,149.879 52.768 C 149.792 52.681,150.148 50.376,150.442 49.129 C 150.587 48.513,150.658 47.884,150.600 47.733 C 150.542 47.582,150.565 47.372,150.652 47.268 C 150.738 47.164,150.838 46.779,150.873 46.414 C 150.909 46.049,151.018 45.600,151.116 45.417 C 151.214 45.233,151.346 44.839,151.410 44.540 C 151.535 43.962,151.910 43.667,152.520 43.667 L 152.896 43.667 152.520 43.317 C 152.314 43.124,152.177 42.934,152.216 42.895 C 152.266 42.845,158.734 42.181,159.310 42.168 C 159.377 42.166,159.226 42.819,159.056 43.262 C 158.982 43.454,159.007 43.515,159.127 43.441 C 159.228 43.379,159.400 42.900,159.508 42.376 C 159.617 41.853,159.742 41.311,159.785 41.171 C 159.843 40.985,159.824 40.972,159.715 41.124 C 159.519 41.395,156.286 41.662,153.250 41.659 C 150.208 41.656,150.610 41.461,154.583 41.013 C 156.325 40.816,158.179 40.596,158.704 40.523 C 159.313 40.438,159.719 40.452,159.829 40.562 C 159.946 40.679,160.000 40.569,160.000 40.210 C 160.000 39.922,160.072 39.642,160.159 39.588 C 160.247 39.534,160.269 39.360,160.209 39.203 C 160.118 38.967,160.081 38.990,160.000 39.333 C 159.878 39.851,158.836 40.044,154.566 40.340 C 150.814 40.600,150.918 40.651,151.053 38.592 C 151.118 37.610,151.091 36.991,150.980 36.880 C 150.774 36.674,150.995 36.231,151.780 35.277 C 152.072 34.923,152.274 34.540,152.230 34.425 C 152.186 34.310,152.358 34.080,152.613 33.913 L 153.076 33.609 152.246 33.318 C 151.790 33.157,151.540 33.020,151.690 33.013 C 151.841 33.006,152.012 32.809,152.070 32.575 C 152.194 32.085,151.828 31.228,151.523 31.294 C 151.368 31.328,151.363 31.256,151.502 30.996 C 151.704 30.620,151.579 30.000,151.302 30.000 C 151.190 30.000,151.199 29.912,151.327 29.757 C 151.783 29.209,151.010 26.500,150.397 26.500 C 150.102 26.500,150.088 25.605,150.379 25.304 C 150.496 25.182,150.583 25.008,150.573 24.917 C 150.555 24.752,150.509 24.630,150.044 23.500 C 149.141 21.308,149.186 21.249,151.065 22.167 C 153.265 23.242,155.019 24.765,157.132 27.434 C 157.343 27.699,157.289 27.569,157.012 27.144 C 154.878 23.860,150.171 20.862,146.440 20.409 L 145.463 20.290 145.578 21.127 M85.170 30.412 C 83.875 31.972,84.410 44.587,85.756 44.235 C 86.076 44.152,86.082 43.989,86.036 37.325 C 85.999 31.865,86.032 30.498,86.203 30.488 C 86.438 30.475,85.863 30.197,85.562 30.178 C 85.459 30.172,85.282 30.277,85.170 30.412 M221.796 31.305 C 221.910 31.646,221.369 31.515,220.884 31.086 L 220.417 30.671 221.074 30.891 C 221.435 31.012,221.760 31.198,221.796 31.305 M59.958 31.586 C 59.706 31.975,59.500 32.481,59.500 32.710 C 59.500 32.939,59.375 33.416,59.223 33.771 C 58.869 34.593,58.881 37.639,59.242 38.702 C 59.452 39.320,59.576 40.134,59.746 42.000 C 59.848 43.121,60.711 44.101,60.810 43.208 C 60.980 41.690,60.795 39.993,60.334 38.833 C 59.729 37.310,59.679 35.130,60.218 33.785 C 61.060 31.680,60.881 30.161,59.958 31.586 M159.282 31.667 C 159.684 33.159,159.840 33.585,159.770 32.999 C 159.732 32.678,159.581 32.153,159.435 31.832 C 159.289 31.512,159.220 31.437,159.282 31.667 M223.653 32.691 C 223.383 33.197,223.590 33.252,224.074 32.802 C 224.475 32.431,224.481 32.403,224.169 32.379 C 223.984 32.365,223.753 32.506,223.653 32.691 M222.833 32.798 C 222.833 32.870,222.590 32.945,222.292 32.965 C 221.885 32.993,221.812 32.961,222.000 32.837 C 222.300 32.639,222.833 32.614,222.833 32.798 M160.042 34.917 C 160.044 35.283,160.078 35.414,160.118 35.206 C 160.158 34.999,160.156 34.699,160.115 34.540 C 160.073 34.380,160.040 34.550,160.042 34.917 M369.076 35.054 C 368.928 35.645,369.274 36.529,369.509 36.158 C 369.733 35.804,369.700 35.275,369.430 34.907 C 369.203 34.597,369.189 34.602,369.076 35.054 M283.964 37.154 C 284.019 39.121,283.943 39.288,283.147 38.951 C 281.515 38.261,281.477 36.165,283.083 35.490 C 283.839 35.173,283.914 35.316,283.964 37.154 M264.261 35.875 C 264.325 36.081,264.480 36.310,264.605 36.383 C 264.863 36.534,264.913 37.098,264.681 37.241 C 264.598 37.293,264.550 37.522,264.575 37.751 C 264.604 38.012,264.537 38.167,264.396 38.167 C 264.257 38.167,264.184 38.327,264.205 38.583 C 264.230 38.885,264.333 38.996,264.578 38.987 C 264.768 38.979,264.822 38.936,264.701 38.887 C 264.539 38.822,264.533 38.745,264.675 38.573 C 264.963 38.227,265.086 36.388,264.842 36.094 C 264.730 35.958,264.686 35.770,264.745 35.674 C 264.807 35.574,264.702 35.500,264.499 35.500 C 264.208 35.500,264.165 35.567,264.261 35.875 M285.408 36.205 C 285.783 36.741,285.739 37.863,285.321 38.394 C 284.669 39.223,284.523 38.991,284.553 37.182 C 284.582 35.414,284.733 35.242,285.408 36.205 M160.221 37.250 C 160.222 37.892,160.252 38.134,160.288 37.788 C 160.324 37.442,160.324 36.917,160.287 36.621 C 160.250 36.325,160.221 36.608,160.221 37.250 M246.083 37.250 C 246.083 38.209,246.272 38.405,246.688 37.875 C 246.889 37.619,246.885 37.608,246.659 37.784 C 246.433 37.960,246.405 37.883,246.439 37.159 C 246.464 36.614,246.410 36.333,246.280 36.333 C 246.153 36.333,246.083 36.657,246.083 37.250 M376.167 39.250 C 375.640 41.129,376.530 43.559,377.241 42.184 C 378.182 40.365,377.765 38.500,376.418 38.500 C 376.395 38.500,376.282 38.837,376.167 39.250 M385.390 41.469 C 384.899 41.785,384.636 42.678,384.910 43.096 C 385.387 43.825,385.833 43.387,385.833 42.187 C 385.833 41.496,385.696 41.273,385.390 41.469 M224.083 44.500 C 224.027 44.592,224.093 44.667,224.230 44.667 C 224.368 44.667,224.527 44.592,224.583 44.500 C 224.640 44.408,224.574 44.333,224.436 44.333 C 224.299 44.333,224.140 44.408,224.083 44.500 M278.917 58.268 C 279.243 58.521,279.242 58.525,278.846 58.471 C 278.624 58.441,278.412 58.323,278.374 58.208 C 278.282 57.929,278.510 57.954,278.917 58.268 M392.173 63.900 C 392.089 64.121,391.941 64.350,391.844 64.410 C 391.643 64.534,391.601 65.004,391.792 64.993 C 391.942 64.984,392.667 63.876,392.667 63.655 C 392.667 63.341,392.320 63.513,392.173 63.900 M392.125 72.369 C 391.685 72.920,391.740 73.500,392.232 73.500 C 392.671 73.500,392.833 73.226,392.833 72.486 C 392.833 71.907,392.534 71.858,392.125 72.369 M389.172 74.105 C 389.177 74.404,389.531 75.000,389.704 75.000 C 389.872 75.000,389.623 74.171,389.398 73.985 C 389.214 73.832,389.168 73.857,389.172 74.105 M390.110 74.741 C 390.030 74.949,390.144 75.000,390.686 75.000 C 391.151 75.000,391.340 74.935,391.293 74.792 C 391.188 74.472,390.229 74.431,390.110 74.741 " stroke="none" fill="#653e1a" fill-rule="evenodd"></path><path id="path3" d="M263.439 0.292 C 263.394 0.452,263.268 1.029,263.160 1.573 C 263.052 2.118,262.885 2.689,262.789 2.843 C 262.685 3.010,262.671 3.249,262.756 3.436 C 262.956 3.880,262.956 4.230,262.756 4.372 C 262.645 4.451,262.657 4.496,262.792 4.497 C 262.906 4.499,263.000 4.650,263.000 4.833 C 263.000 5.017,262.944 5.167,262.875 5.167 C 262.806 5.167,262.742 5.448,262.732 5.792 C 262.665 8.105,262.625 8.667,262.527 8.667 C 262.466 8.667,262.425 9.344,262.435 10.171 C 262.446 10.998,262.393 11.713,262.318 11.760 C 262.243 11.806,262.241 12.005,262.314 12.202 C 262.429 12.515,261.969 14.031,261.667 14.333 C 261.386 14.614,260.611 16.471,260.611 16.863 C 260.611 17.122,260.557 17.333,260.491 17.333 C 260.425 17.333,260.388 17.752,260.409 18.263 C 260.430 18.775,260.369 19.484,260.274 19.840 C 260.124 20.401,260.144 20.527,260.426 20.787 C 260.828 21.159,261.167 21.749,261.167 22.078 C 261.167 22.215,261.361 22.376,261.599 22.436 C 261.929 22.518,261.979 22.581,261.808 22.701 C 261.633 22.824,261.629 22.877,261.792 22.943 C 261.906 22.990,262.000 23.176,262.000 23.357 C 262.000 23.538,261.925 23.640,261.833 23.583 C 261.742 23.527,261.667 23.627,261.667 23.805 C 261.667 24.092,261.024 24.443,260.641 24.366 C 260.581 24.354,260.489 24.454,260.438 24.589 C 260.380 24.739,260.443 24.833,260.600 24.833 C 260.823 24.833,260.821 24.870,260.580 25.110 C 260.346 25.345,260.280 25.351,260.154 25.152 C 259.998 24.906,259.938 25.271,259.985 26.167 L 260.007 26.583 259.760 26.167 C 259.514 25.754,259.512 25.754,259.506 26.125 C 259.503 26.331,259.406 26.501,259.292 26.503 C 259.139 26.504,259.144 26.544,259.311 26.649 C 259.500 26.769,259.500 26.805,259.313 26.868 C 259.034 26.961,259.041 29.064,259.321 29.402 C 259.451 29.558,259.456 29.759,259.341 30.064 C 259.249 30.305,259.189 30.853,259.208 31.280 C 259.229 31.772,259.167 32.083,259.038 32.126 C 258.925 32.164,258.833 32.301,258.833 32.431 C 258.833 32.560,258.767 32.667,258.686 32.667 C 258.605 32.667,258.486 32.835,258.421 33.042 C 258.283 33.485,258.213 35.166,258.333 35.168 C 258.568 35.171,259.196 36.368,259.119 36.665 C 259.071 36.849,259.099 36.958,259.182 36.907 C 259.265 36.856,259.333 36.931,259.333 37.073 C 259.333 37.216,259.436 37.333,259.563 37.333 C 259.689 37.333,259.837 37.558,259.892 37.833 C 259.954 38.145,260.095 38.333,260.265 38.333 C 260.462 38.333,260.513 38.433,260.446 38.688 C 260.395 38.883,260.474 39.227,260.622 39.452 C 260.812 39.742,260.836 39.896,260.703 39.977 C 260.600 40.041,260.484 40.353,260.444 40.672 C 260.293 41.897,259.789 42.500,258.917 42.500 C 258.596 42.500,258.333 42.579,258.333 42.675 C 258.333 42.988,257.461 43.667,257.059 43.667 C 256.761 43.667,256.667 43.759,256.667 44.050 C 256.667 44.261,256.573 44.534,256.458 44.658 C 256.287 44.842,256.310 44.863,256.583 44.774 C 256.893 44.674,256.896 44.682,256.625 44.893 C 256.269 45.171,256.246 45.597,256.581 45.726 C 256.716 45.778,256.786 45.928,256.736 46.060 C 256.686 46.191,256.785 46.400,256.957 46.524 C 257.380 46.830,257.260 49.486,256.811 49.764 C 256.731 49.813,256.840 50.093,257.054 50.385 C 257.268 50.678,257.411 51.057,257.372 51.228 C 257.323 51.445,257.365 51.500,257.510 51.411 C 257.653 51.322,257.676 51.350,257.584 51.500 C 257.503 51.630,257.543 51.792,257.683 51.904 C 257.992 52.150,258.333 52.766,258.333 53.078 C 258.333 53.215,258.601 53.603,258.929 53.940 C 259.256 54.278,259.636 54.834,259.774 55.177 C 259.911 55.520,260.167 55.838,260.343 55.884 C 260.519 55.930,260.734 56.155,260.821 56.384 C 260.908 56.613,261.060 56.851,261.159 56.912 C 261.258 56.973,261.296 57.093,261.243 57.178 C 261.190 57.264,261.295 57.333,261.477 57.333 C 261.854 57.333,262.500 58.267,262.500 58.811 C 262.500 59.007,262.567 59.167,262.649 59.167 C 263.116 59.167,263.446 62.420,263.070 63.323 C 263.010 63.466,262.933 63.975,262.899 64.455 C 262.864 64.934,262.823 65.384,262.808 65.455 C 262.793 65.525,262.825 65.696,262.880 65.833 C 262.935 65.971,263.067 66.533,263.173 67.083 C 263.396 68.234,264.183 70.705,264.371 70.843 C 264.441 70.894,264.547 71.400,264.606 71.968 C 264.666 72.535,264.778 73.000,264.857 73.000 C 264.936 73.000,265.000 73.112,265.000 73.250 C 265.000 73.387,265.112 73.500,265.250 73.500 C 265.387 73.500,265.500 73.611,265.500 73.746 C 265.500 73.882,265.688 74.115,265.917 74.265 C 266.146 74.415,266.333 74.642,266.333 74.769 C 266.333 74.963,267.777 75.000,275.335 75.000 C 284.311 75.000,284.336 74.999,284.127 74.665 C 284.012 74.480,283.786 74.288,283.625 74.237 C 283.465 74.186,283.333 74.063,283.333 73.963 C 283.333 73.863,283.136 73.523,282.895 73.207 C 282.349 72.491,282.000 71.360,282.000 70.307 C 282.000 69.863,281.940 69.500,281.868 69.500 C 281.673 69.500,281.078 67.978,281.137 67.631 C 281.165 67.467,281.117 67.333,281.032 67.333 C 280.946 67.333,280.826 67.018,280.764 66.633 C 280.702 66.248,280.589 65.854,280.512 65.758 C 280.360 65.568,280.260 64.995,280.001 62.845 C 279.908 62.072,279.720 61.268,279.583 61.059 C 279.446 60.850,279.333 60.516,279.333 60.318 C 279.333 60.119,279.033 59.518,278.667 58.980 C 278.201 58.298,278.000 57.827,278.000 57.419 C 278.000 57.097,277.925 56.833,277.833 56.833 C 277.630 56.833,277.687 56.464,277.917 56.292 C 278.021 56.213,277.992 56.108,277.838 56.009 C 277.505 55.795,277.726 55.610,278.154 55.746 C 278.347 55.807,278.500 55.998,278.500 56.178 C 278.500 56.355,278.578 56.500,278.674 56.500 C 278.770 56.500,278.826 56.406,278.800 56.291 C 278.774 56.176,278.929 55.833,279.146 55.529 C 279.436 55.122,279.517 54.834,279.453 54.439 C 279.405 54.144,279.427 53.568,279.503 53.159 C 279.583 52.722,279.577 52.394,279.487 52.361 C 279.402 52.331,279.333 52.237,279.333 52.153 C 279.333 51.924,279.792 51.969,279.898 52.208 C 279.949 52.323,279.974 52.267,279.953 52.083 C 279.925 51.830,280.016 51.749,280.333 51.747 C 280.880 51.744,280.977 49.910,280.590 46.901 C 280.306 44.692,280.378 43.834,280.859 43.708 C 281.208 43.617,281.229 43.518,281.014 42.954 C 280.930 42.733,280.821 42.335,280.771 42.068 C 280.552 40.900,280.301 40.083,280.130 39.977 C 280.028 39.914,279.955 39.581,279.968 39.235 C 279.981 38.890,279.917 38.517,279.825 38.407 C 279.643 38.188,279.529 36.148,279.508 32.750 C 279.500 31.558,279.411 30.329,279.309 30.017 C 279.208 29.706,279.100 28.993,279.071 28.434 C 279.041 27.874,278.944 26.629,278.856 25.667 C 278.768 24.704,278.644 23.017,278.580 21.917 C 278.507 20.667,278.345 19.575,278.148 19.006 C 277.975 18.505,277.833 17.826,277.833 17.497 C 277.833 17.169,277.757 16.824,277.664 16.730 C 277.332 16.399,277.177 15.532,277.432 15.434 C 277.561 15.384,277.667 15.243,277.667 15.120 C 277.667 14.997,277.798 14.749,277.958 14.569 C 278.119 14.388,278.393 13.962,278.568 13.620 C 278.743 13.279,278.971 13.000,279.075 13.000 C 279.179 13.000,279.402 12.594,279.571 12.097 C 279.768 11.518,279.954 11.223,280.089 11.275 C 280.317 11.363,280.581 10.694,280.754 9.583 C 280.918 8.535,281.186 7.935,281.374 8.197 C 281.492 8.362,281.509 8.346,281.442 8.136 C 281.393 7.982,281.498 7.555,281.676 7.186 C 281.854 6.818,282.000 6.437,282.000 6.341 C 282.000 6.245,282.067 6.167,282.148 6.167 C 282.230 6.167,282.292 6.073,282.286 5.958 C 282.257 5.378,282.561 4.667,282.838 4.667 C 283.084 4.667,283.124 4.552,283.071 4.000 C 283.035 3.633,283.064 3.333,283.135 3.333 C 283.206 3.333,283.277 2.583,283.294 1.667 L 283.324 0.000 273.423 0.000 C 264.137 0.000,263.517 0.018,263.439 0.292 M212.709 16.460 C 212.312 16.505,212.148 16.618,212.094 16.886 C 211.832 18.186,211.645 24.857,211.830 26.287 C 211.892 26.765,211.884 27.216,211.812 27.288 C 211.740 27.360,211.680 28.018,211.679 28.751 C 211.674 31.407,211.824 38.444,211.911 39.583 C 211.959 40.225,211.991 41.087,211.981 41.500 C 211.971 41.912,211.972 42.325,211.984 42.417 C 212.103 43.314,212.087 43.669,211.905 44.193 C 211.788 44.529,211.720 44.831,211.755 44.866 C 211.789 44.900,211.862 46.120,211.917 47.576 C 211.971 49.033,212.053 50.284,212.097 50.356 C 212.142 50.429,212.221 51.710,212.272 53.203 C 212.323 54.695,212.415 56.367,212.475 56.917 L 212.586 57.917 214.168 57.890 C 219.341 57.803,225.795 53.804,228.919 48.750 C 229.385 47.996,228.996 48.442,228.034 49.765 C 225.687 52.993,221.821 55.775,218.250 56.805 C 216.055 57.438,216.235 57.496,216.243 56.161 C 216.247 55.523,216.179 55.000,216.092 55.000 C 216.005 55.000,216.023 54.910,216.133 54.800 C 216.375 54.558,216.400 54.272,216.167 54.417 C 216.075 54.473,216.000 54.440,216.000 54.343 C 216.000 54.246,216.078 54.167,216.173 54.167 C 216.289 54.167,216.286 54.057,216.165 53.830 C 216.066 53.645,216.021 53.435,216.065 53.364 C 216.109 53.292,216.086 53.139,216.014 53.022 C 215.941 52.905,215.937 52.513,216.003 52.151 C 216.069 51.789,216.060 51.453,215.982 51.405 C 215.904 51.357,215.932 51.162,216.045 50.970 C 216.208 50.695,216.207 50.608,216.042 50.548 C 215.927 50.506,215.833 50.399,215.833 50.310 C 215.833 50.220,215.908 50.193,216.000 50.250 C 216.296 50.433,216.177 50.144,215.745 49.630 C 215.357 49.169,215.345 49.111,215.603 48.923 C 215.803 48.776,215.828 48.683,215.689 48.597 C 215.582 48.531,215.538 48.407,215.590 48.322 C 215.643 48.236,215.602 48.167,215.500 48.167 C 215.374 48.167,215.348 47.929,215.423 47.436 C 215.488 46.996,215.457 46.564,215.344 46.352 C 215.209 46.101,215.207 46.000,215.337 46.000 C 215.438 46.000,215.477 45.931,215.425 45.848 C 215.374 45.764,215.425 45.657,215.541 45.611 C 215.656 45.564,215.600 45.519,215.417 45.511 C 215.139 45.498,215.125 45.468,215.333 45.333 C 215.511 45.218,215.521 45.171,215.368 45.169 C 215.249 45.168,215.174 45.036,215.201 44.877 C 215.255 44.556,216.027 43.833,216.316 43.833 C 216.417 43.833,216.500 43.716,216.500 43.573 C 216.500 43.431,216.575 43.360,216.667 43.417 C 216.758 43.473,216.833 43.440,216.833 43.343 C 216.833 43.246,216.690 43.167,216.515 43.167 C 216.097 43.167,216.164 42.770,216.654 42.345 C 216.893 42.137,217.000 41.908,216.936 41.741 C 216.871 41.571,216.908 41.497,217.038 41.540 C 217.338 41.640,217.628 41.306,217.539 40.963 C 217.487 40.766,217.555 40.667,217.740 40.667 C 217.894 40.667,217.973 40.592,217.917 40.500 C 217.860 40.408,217.612 40.331,217.365 40.328 C 216.959 40.323,216.944 40.302,217.205 40.104 C 217.461 39.909,217.391 39.850,216.568 39.571 C 215.466 39.196,215.200 38.945,215.511 38.571 C 215.691 38.353,215.688 38.282,215.489 38.157 C 215.309 38.042,215.303 38.004,215.468 38.003 C 215.588 38.001,215.651 37.943,215.608 37.873 C 215.497 37.694,215.849 37.257,216.296 37.019 C 216.505 36.908,216.631 36.744,216.576 36.656 C 216.522 36.567,216.396 36.545,216.296 36.606 C 216.192 36.671,216.163 36.641,216.227 36.537 C 216.288 36.438,216.266 36.311,216.177 36.256 C 216.088 36.201,216.057 36.046,216.108 35.911 C 216.160 35.777,216.135 35.667,216.053 35.667 C 215.765 35.667,215.914 34.752,216.232 34.565 C 216.541 34.384,216.541 34.374,216.232 34.065 C 215.887 33.720,215.823 33.319,216.083 33.128 C 216.187 33.052,216.171 33.004,216.042 33.003 C 215.732 32.999,215.789 32.700,216.177 32.285 C 216.492 31.948,216.497 31.912,216.230 31.857 C 215.979 31.805,215.994 31.755,216.345 31.486 L 216.750 31.174 216.361 31.170 C 216.123 31.168,216.001 31.086,216.045 30.958 C 216.085 30.844,216.249 30.774,216.410 30.803 C 216.929 30.897,216.604 30.516,215.835 30.128 L 215.087 29.750 215.117 28.833 C 215.134 28.329,215.152 27.856,215.157 27.782 C 215.162 27.708,215.242 27.693,215.333 27.750 C 215.425 27.807,215.500 27.774,215.500 27.677 C 215.500 27.579,215.617 27.500,215.760 27.500 C 215.903 27.500,215.976 27.430,215.923 27.344 C 215.870 27.258,215.959 27.110,216.121 27.015 C 216.397 26.855,216.398 26.843,216.128 26.838 C 215.962 26.835,215.795 26.657,215.735 26.417 C 215.678 26.188,215.545 25.993,215.440 25.983 C 215.336 25.974,215.438 25.907,215.667 25.833 C 215.920 25.752,215.974 25.693,215.805 25.683 C 215.186 25.646,215.034 24.167,215.649 24.167 C 215.856 24.167,215.932 24.055,215.903 23.792 C 215.880 23.585,215.847 23.417,215.830 23.417 C 215.813 23.417,215.770 23.154,215.735 22.833 C 215.699 22.512,215.643 22.100,215.610 21.917 C 215.578 21.733,215.609 21.471,215.680 21.333 C 216.069 20.580,216.230 19.392,215.965 19.229 C 215.882 19.177,215.892 19.047,215.989 18.931 C 216.103 18.792,216.106 18.536,215.997 18.155 C 215.661 16.983,215.835 16.937,218.096 17.592 C 222.152 18.767,226.328 21.986,228.844 25.878 C 229.388 26.719,229.833 27.341,229.833 27.261 C 229.833 26.813,227.399 23.555,226.089 22.250 C 222.389 18.564,216.537 16.032,212.709 16.460 M143.397 20.128 C 142.963 20.412,142.562 27.335,142.523 35.227 C 142.509 38.055,142.452 40.443,142.397 40.532 C 142.290 40.705,138.151 40.610,133.000 40.318 C 125.074 39.868,119.311 38.422,120.542 37.192 C 120.656 37.077,120.752 36.893,120.754 36.783 C 120.756 36.673,120.895 36.607,121.062 36.636 C 121.267 36.672,121.326 36.622,121.241 36.485 C 121.168 36.367,121.184 36.325,121.280 36.384 C 121.519 36.531,122.673 36.144,122.556 35.956 C 122.498 35.861,122.609 35.846,122.833 35.917 C 123.106 36.003,123.174 35.980,123.083 35.833 C 122.992 35.686,123.061 35.664,123.333 35.750 C 123.540 35.815,123.669 35.805,123.621 35.726 C 123.573 35.648,123.807 35.579,124.142 35.574 C 125.360 35.554,125.667 35.388,125.667 34.747 C 125.667 34.019,125.574 34.014,122.305 34.579 C 114.910 35.857,112.903 37.609,117.069 39.151 C 120.910 40.573,130.689 41.657,139.736 41.664 C 141.287 41.666,142.514 41.708,142.464 41.758 C 141.962 42.261,126.328 41.515,121.167 40.742 C 114.722 39.777,111.512 38.441,112.396 37.092 C 113.208 35.852,118.177 34.481,124.649 33.710 C 125.797 33.573,125.794 33.576,126.205 32.292 L 126.459 31.500 126.012 31.500 C 125.124 31.500,118.191 32.184,115.750 32.512 C 107.539 33.617,101.905 35.213,100.667 36.787 C 98.574 39.448,106.241 41.918,120.417 43.149 C 127.329 43.749,129.669 43.873,136.167 43.979 L 142.583 44.083 142.693 46.000 C 142.753 47.054,142.849 48.778,142.907 49.830 C 143.061 52.634,143.288 54.043,143.628 54.307 C 144.224 54.768,148.432 54.038,149.811 53.234 C 150.270 52.967,150.194 52.986,148.667 53.523 C 147.538 53.920,145.725 54.143,145.898 53.863 C 145.963 53.759,145.933 53.520,145.833 53.333 C 145.590 52.878,145.641 47.477,145.913 45.042 L 146.029 44.000 145.098 44.000 C 144.321 44.000,144.167 43.952,144.169 43.708 C 144.175 43.068,144.412 42.981,146.517 42.847 C 147.653 42.775,148.283 42.699,147.917 42.679 C 147.416 42.652,147.331 42.612,147.574 42.516 C 148.057 42.328,147.369 42.173,146.000 42.163 C 144.976 42.155,144.939 42.142,145.333 41.917 L 145.750 41.678 145.333 41.658 L 144.917 41.638 145.335 41.511 C 145.565 41.441,146.644 41.329,147.732 41.262 C 150.783 41.074,150.859 40.819,147.833 40.922 C 146.412 40.971,144.875 40.942,144.417 40.858 C 143.648 40.718,143.630 40.704,144.188 40.686 C 144.520 40.675,145.007 40.624,145.271 40.571 L 145.750 40.475 145.691 38.401 C 145.643 36.708,145.681 36.253,145.899 35.920 C 146.046 35.695,146.167 35.401,146.167 35.265 C 146.167 35.130,146.346 34.810,146.565 34.555 L 146.964 34.091 146.485 33.800 C 146.081 33.554,146.028 33.447,146.153 33.120 C 146.241 32.887,146.236 32.618,146.140 32.446 C 145.880 31.981,145.828 31.461,145.986 30.891 C 146.067 30.597,146.096 30.318,146.051 30.273 C 146.005 30.227,145.952 29.566,145.933 28.803 C 145.912 27.993,145.801 27.244,145.666 27.000 C 145.422 26.562,145.429 25.876,145.682 25.567 C 145.770 25.459,145.769 25.016,145.679 24.484 C 145.406 22.865,145.362 22.168,145.529 22.065 C 145.626 22.005,145.647 21.631,145.581 21.149 C 145.474 20.372,145.487 20.333,145.859 20.336 C 146.235 20.339,148.061 20.698,148.750 20.905 C 148.933 20.960,148.856 20.898,148.578 20.767 C 147.389 20.207,143.927 19.780,143.397 20.128 M149.500 21.197 C 149.729 21.307,150.348 21.608,150.875 21.867 C 151.402 22.126,151.833 22.301,151.833 22.255 C 151.833 22.136,149.998 21.231,149.500 21.104 L 149.083 20.998 149.500 21.197 M153.000 23.044 C 153.000 23.081,153.319 23.364,153.708 23.674 C 154.098 23.983,154.311 24.105,154.181 23.944 C 153.938 23.641,153.000 22.926,153.000 23.044 M155.160 24.875 C 155.568 25.310,155.925 25.667,155.951 25.667 C 156.077 25.667,155.944 25.517,155.208 24.826 L 154.417 24.083 155.160 24.875 M230.290 28.500 C 230.527 29.051,230.750 29.472,230.784 29.438 C 230.862 29.360,230.050 27.500,229.938 27.500 C 229.894 27.500,230.053 27.950,230.290 28.500 M83.534 29.809 C 82.989 30.155,82.331 35.867,82.562 38.250 C 82.615 38.800,82.708 40.027,82.768 40.976 C 82.829 41.926,83.003 43.126,83.157 43.643 L 83.435 44.583 84.190 44.633 C 84.966 44.684,86.479 44.224,87.093 43.750 C 87.271 43.613,86.977 43.698,86.439 43.938 C 85.356 44.423,85.311 44.404,84.996 43.333 C 84.214 40.670,84.345 31.407,85.179 30.401 C 85.322 30.229,85.533 30.181,85.821 30.253 C 86.056 30.312,86.201 30.312,86.142 30.253 C 85.805 29.916,83.881 29.589,83.534 29.809 M230.942 30.000 C 231.132 30.751,231.522 31.668,231.410 31.102 C 231.358 30.837,231.208 30.387,231.076 30.102 C 230.896 29.712,230.863 29.687,230.942 30.000 M57.538 30.140 C 56.077 31.067,56.022 42.383,57.469 44.170 C 58.060 44.900,60.539 44.070,62.010 42.650 C 62.428 42.247,62.540 42.110,62.260 42.347 C 60.442 43.882,59.910 43.808,59.746 42.000 C 59.576 40.134,59.452 39.320,59.242 38.702 C 58.881 37.639,58.869 34.593,59.223 33.771 C 59.375 33.416,59.501 32.929,59.503 32.688 C 59.505 32.447,59.719 31.937,59.978 31.553 L 60.451 30.857 61.017 31.194 C 61.328 31.380,61.920 31.844,62.333 32.224 L 63.082 32.917 62.499 32.276 C 61.096 30.732,58.420 29.580,57.538 30.140 M159.531 32.042 C 159.697 32.479,159.833 33.017,159.833 33.236 C 159.833 33.558,159.900 33.618,160.179 33.545 C 161.086 33.308,167.692 34.389,170.207 35.186 C 175.153 36.754,173.897 38.571,166.894 39.978 C 164.051 40.549,160.209 41.098,160.065 40.954 C 159.831 40.720,160.231 40.536,161.205 40.428 C 162.946 40.235,166.318 39.533,167.656 39.084 C 172.571 37.435,171.211 35.709,164.000 34.445 C 159.963 33.738,159.935 33.736,160.058 34.195 C 160.115 34.408,160.175 34.958,160.191 35.417 C 160.213 36.050,160.236 36.117,160.288 35.696 C 160.369 35.041,160.729 35.051,163.020 35.769 C 166.102 36.736,165.806 37.767,162.165 38.742 C 160.234 39.259,160.372 39.262,160.278 38.708 C 160.214 38.333,160.202 38.356,160.207 38.833 C 160.210 39.154,160.173 39.529,160.125 39.667 C 160.077 39.804,159.874 40.667,159.675 41.583 C 159.475 42.500,159.242 43.321,159.156 43.408 C 159.070 43.495,159.001 43.645,159.003 43.742 C 159.004 43.838,159.071 43.813,159.151 43.686 C 159.257 43.519,160.277 43.370,162.853 43.146 C 167.089 42.776,173.065 42.022,173.129 41.849 C 173.154 41.781,173.417 41.755,173.712 41.791 C 174.136 41.843,174.197 41.818,174.000 41.672 C 173.809 41.531,173.904 41.514,174.399 41.600 C 174.862 41.680,175.015 41.659,174.932 41.525 C 174.858 41.404,174.909 41.373,175.076 41.437 C 175.441 41.577,177.518 41.164,177.401 40.975 C 177.345 40.884,177.494 40.867,177.761 40.934 C 178.091 41.017,178.183 40.994,178.094 40.851 C 178.006 40.708,178.097 40.685,178.428 40.768 C 178.778 40.855,178.852 40.832,178.749 40.665 C 178.659 40.519,178.681 40.489,178.815 40.572 C 179.094 40.744,180.691 40.342,180.562 40.132 C 180.497 40.026,180.597 40.008,180.833 40.083 C 181.106 40.170,181.174 40.147,181.083 40.000 C 180.992 39.853,181.061 39.830,181.333 39.917 C 181.587 39.997,181.672 39.977,181.596 39.853 C 181.528 39.744,181.574 39.706,181.708 39.757 C 181.936 39.845,183.167 39.407,183.167 39.238 C 183.167 39.188,183.080 39.201,182.974 39.266 C 182.852 39.341,182.827 39.311,182.906 39.184 C 182.975 39.073,183.117 39.014,183.224 39.052 C 183.775 39.250,185.167 37.955,185.167 37.243 C 185.167 34.635,177.481 32.785,160.823 31.381 L 159.229 31.247 159.531 32.042 M88.000 31.385 C 88.000 31.414,88.244 31.658,88.542 31.927 L 89.083 32.417 88.594 31.875 C 88.138 31.370,88.000 31.257,88.000 31.385 M232.042 34.417 C 232.044 34.783,232.078 34.914,232.118 34.706 C 232.158 34.499,232.156 34.199,232.115 34.040 C 232.073 33.880,232.040 34.050,232.042 34.417 M232.231 37.250 C 232.232 38.442,232.258 38.907,232.290 38.285 C 232.323 37.662,232.322 36.687,232.290 36.118 C 232.257 35.549,232.231 36.058,232.231 37.250 M263.833 35.912 C 263.833 36.461,263.808 36.487,263.357 36.396 C 262.776 36.280,262.517 36.725,262.913 37.162 C 263.261 37.547,263.231 37.833,262.843 37.833 C 262.665 37.833,262.465 37.922,262.398 38.031 C 262.215 38.326,262.057 37.751,262.136 37.076 C 262.172 36.766,262.287 36.528,262.391 36.548 C 262.503 36.569,262.559 36.402,262.530 36.139 C 262.475 35.650,262.827 35.347,263.458 35.338 C 263.776 35.334,263.833 35.421,263.833 35.912 M283.083 35.490 C 281.477 36.165,281.515 38.261,283.147 38.951 C 283.943 39.288,284.019 39.121,283.964 37.154 C 283.914 35.316,283.839 35.173,283.083 35.490 M265.207 35.919 C 265.936 36.648,265.950 37.812,265.239 38.579 C 264.728 39.131,264.250 39.133,264.205 38.583 C 264.184 38.327,264.257 38.167,264.396 38.167 C 264.537 38.167,264.604 38.012,264.575 37.751 C 264.550 37.522,264.598 37.293,264.681 37.241 C 264.913 37.098,264.863 36.534,264.605 36.383 C 264.480 36.310,264.325 36.081,264.261 35.875 C 264.096 35.345,264.659 35.371,265.207 35.919 M245.833 37.250 C 245.833 38.192,245.873 38.333,246.141 38.333 C 246.452 38.333,247.000 37.849,247.000 37.575 C 247.000 37.493,246.883 37.593,246.741 37.796 C 246.298 38.428,246.083 38.249,246.083 37.250 C 246.083 36.251,246.298 36.072,246.741 36.704 C 246.883 36.907,247.000 36.994,247.000 36.896 C 247.000 36.633,246.432 36.167,246.112 36.167 C 245.880 36.167,245.833 36.349,245.833 37.250 M90.717 37.167 C 90.717 37.671,90.748 37.877,90.786 37.625 C 90.824 37.373,90.824 36.960,90.786 36.708 C 90.748 36.456,90.717 36.662,90.717 37.167 M64.381 37.250 C 64.382 37.708,64.415 37.876,64.453 37.623 C 64.491 37.369,64.490 36.994,64.451 36.789 C 64.411 36.584,64.380 36.792,64.381 37.250 M263.778 37.944 C 263.729 37.993,263.601 37.979,263.493 37.913 C 263.348 37.823,263.356 37.755,263.524 37.651 C 263.746 37.513,263.962 37.761,263.778 37.944 M263.083 38.667 C 263.027 38.758,263.097 38.833,263.240 38.833 C 263.383 38.833,263.500 38.758,263.500 38.667 C 263.500 38.575,263.575 38.500,263.667 38.500 C 263.758 38.500,263.833 38.650,263.833 38.833 C 263.833 39.186,263.431 39.277,263.020 39.016 C 262.818 38.888,262.880 38.500,263.103 38.500 C 263.149 38.500,263.140 38.575,263.083 38.667 M232.042 40.083 C 232.044 40.450,232.078 40.580,232.118 40.373 C 232.158 40.166,232.156 39.866,232.115 39.706 C 232.073 39.547,232.040 39.717,232.042 40.083 M89.783 40.752 C 89.630 41.072,89.540 41.333,89.582 41.333 C 89.696 41.333,90.202 40.313,90.125 40.237 C 90.089 40.200,89.935 40.432,89.783 40.752 M231.119 43.869 C 230.967 44.344,230.871 44.760,230.905 44.793 C 230.938 44.827,231.094 44.470,231.250 44.000 C 231.406 43.530,231.503 43.114,231.464 43.076 C 231.426 43.037,231.271 43.394,231.119 43.869 M158.449 44.919 C 158.297 45.238,158.206 45.500,158.248 45.500 C 158.362 45.500,158.868 44.480,158.792 44.403 C 158.756 44.367,158.602 44.599,158.449 44.919 M230.527 45.424 C 230.248 46.037,230.301 46.167,230.603 45.610 C 230.744 45.350,230.828 45.106,230.790 45.068 C 230.752 45.030,230.634 45.190,230.527 45.424 M229.417 47.667 C 229.274 47.942,229.196 48.167,229.241 48.167 C 229.287 48.167,229.441 47.942,229.583 47.667 C 229.726 47.392,229.804 47.167,229.759 47.167 C 229.713 47.167,229.559 47.392,229.417 47.667 M156.073 48.542 L 155.583 49.083 156.125 48.594 C 156.423 48.325,156.667 48.081,156.667 48.052 C 156.667 47.923,156.529 48.037,156.073 48.542 M154.073 50.542 L 153.583 51.083 154.125 50.594 C 154.423 50.325,154.667 50.081,154.667 50.052 C 154.667 49.923,154.529 50.037,154.073 50.542 M152.428 51.682 C 151.213 52.489,151.027 52.675,151.938 52.173 C 152.582 51.819,153.685 51.003,153.500 51.019 C 153.454 51.023,152.972 51.321,152.428 51.682 M278.374 58.208 C 278.412 58.323,278.624 58.441,278.846 58.471 C 279.242 58.525,279.243 58.521,278.917 58.268 C 278.510 57.954,278.282 57.929,278.374 58.208 " stroke="none" fill="#342012" fill-rule="evenodd"></path><path id="path4" d="M323.129 1.125 C 323.038 3.896,323.024 4.586,323.009 7.333 C 323.000 8.938,322.921 11.375,322.834 12.750 C 322.628 16.014,322.598 18.545,322.731 21.417 C 322.791 22.700,322.879 24.650,322.926 25.750 C 323.020 27.921,323.189 29.356,323.822 33.333 C 323.917 33.929,324.028 34.642,324.070 34.917 C 324.142 35.396,324.273 36.098,324.742 38.532 C 324.860 39.146,324.971 40.421,324.988 41.366 C 325.020 43.067,325.288 45.494,325.734 48.100 C 325.861 48.842,326.017 50.192,326.081 51.100 C 326.145 52.007,326.301 53.125,326.426 53.583 C 326.552 54.042,326.698 55.092,326.751 55.917 C 326.917 58.507,327.743 63.538,328.174 64.583 C 328.482 65.331,329.051 67.409,329.086 67.917 C 329.129 68.532,329.850 71.215,330.105 71.709 C 330.244 71.978,330.321 72.234,330.276 72.279 C 330.231 72.324,330.338 72.779,330.514 73.290 C 330.690 73.801,330.833 74.395,330.833 74.609 L 330.833 75.000 334.826 75.000 L 338.819 75.000 338.598 74.375 C 338.477 74.031,338.064 72.625,337.682 71.250 C 336.493 66.981,336.142 65.788,335.733 64.619 C 335.052 62.677,333.698 57.188,332.826 52.833 C 331.530 46.364,331.146 44.241,330.853 41.917 C 329.301 29.603,329.116 27.669,328.690 19.333 C 328.536 16.341,328.590 3.595,328.764 1.375 L 328.873 0.000 326.020 0.000 L 323.167 0.000 323.129 1.125 M221.741 20.042 C 221.756 20.248,221.700 20.510,221.614 20.625 C 221.516 20.758,221.530 20.919,221.654 21.068 C 221.788 21.229,221.794 21.338,221.675 21.412 C 221.579 21.471,221.500 21.646,221.499 21.802 C 221.498 21.957,221.392 22.287,221.262 22.535 L 221.027 22.986 221.680 22.895 C 222.096 22.837,222.333 22.870,222.333 22.985 C 222.333 23.085,222.240 23.172,222.125 23.178 C 222.010 23.185,222.067 23.255,222.250 23.333 C 222.541 23.458,222.523 23.478,222.106 23.488 C 221.687 23.499,221.638 23.552,221.708 23.921 C 221.752 24.152,221.712 24.389,221.619 24.446 C 221.521 24.507,221.499 24.469,221.567 24.359 C 221.639 24.243,221.576 24.167,221.409 24.167 C 221.236 24.167,221.166 24.257,221.223 24.406 C 221.273 24.537,221.230 24.673,221.127 24.708 C 220.651 24.866,221.173 25.369,221.710 25.268 C 222.222 25.173,222.250 25.193,222.250 25.669 C 222.250 25.945,222.175 26.139,222.083 26.101 C 221.392 25.814,221.335 25.857,221.873 26.255 C 222.537 26.747,222.417 27.128,221.583 27.175 C 221.351 27.187,221.325 27.218,221.500 27.276 C 221.637 27.322,221.862 27.400,222.000 27.449 C 222.137 27.498,222.550 27.568,222.917 27.605 C 223.898 27.703,225.292 28.437,225.590 29.014 C 225.729 29.281,225.880 29.500,225.927 29.500 C 225.974 29.500,225.928 29.344,225.826 29.152 C 225.564 28.663,225.669 28.623,226.878 28.752 C 228.012 28.873,229.601 29.461,228.865 29.487 C 228.637 29.495,228.525 29.572,228.590 29.678 C 228.651 29.776,228.798 29.819,228.917 29.773 C 229.036 29.727,229.178 29.733,229.231 29.786 C 229.371 29.926,228.672 30.492,228.219 30.606 C 228.007 30.659,227.833 30.774,227.833 30.861 C 227.833 30.948,227.917 30.968,228.019 30.905 C 228.121 30.842,228.267 30.892,228.343 31.016 C 228.427 31.151,228.403 31.292,228.283 31.368 C 228.010 31.541,227.794 31.532,227.905 31.352 C 227.955 31.271,227.828 31.160,227.623 31.105 C 227.090 30.962,227.100 30.959,226.568 31.416 C 226.003 31.902,224.769 32.029,224.940 31.583 C 225.043 31.315,224.709 31.259,224.050 31.436 C 223.770 31.511,223.691 31.646,223.716 32.001 C 223.745 32.397,223.796 32.442,224.055 32.304 C 224.222 32.214,224.485 32.190,224.638 32.250 C 224.866 32.339,224.827 32.406,224.422 32.620 C 224.150 32.764,223.835 32.974,223.722 33.087 C 223.609 33.200,223.082 33.343,222.550 33.405 C 222.018 33.467,221.321 33.567,221.000 33.626 L 220.417 33.735 221.167 33.876 C 221.579 33.954,222.198 34.012,222.542 34.005 C 222.885 33.998,223.167 34.061,223.167 34.145 C 223.167 34.353,222.701 34.518,222.636 34.333 C 222.565 34.131,220.786 34.727,220.701 34.980 C 220.473 35.665,222.264 36.333,223.488 36.020 C 223.907 35.912,224.479 35.870,224.759 35.927 C 225.558 36.087,226.028 34.679,225.322 34.243 C 225.244 34.195,225.203 34.065,225.230 33.953 C 225.257 33.841,225.251 33.795,225.217 33.851 C 225.107 34.031,224.317 33.798,224.381 33.604 C 224.453 33.386,227.032 33.190,227.507 33.368 C 227.681 33.432,227.862 33.422,227.910 33.344 C 228.008 33.186,227.264 32.651,226.863 32.593 C 226.525 32.543,226.395 32.167,226.716 32.167 C 226.850 32.167,227.046 32.062,227.152 31.934 C 227.448 31.577,227.973 31.801,228.032 32.309 C 228.072 32.651,228.187 32.762,228.542 32.803 C 228.794 32.832,229.000 32.925,229.000 33.011 C 229.000 33.327,229.330 33.153,229.572 32.708 L 229.822 32.250 229.789 32.737 C 229.770 33.022,229.849 33.255,229.980 33.299 C 230.104 33.340,230.325 33.515,230.473 33.687 C 230.620 33.859,230.829 34.000,230.936 34.000 C 231.043 34.000,231.174 34.112,231.227 34.250 C 231.280 34.387,231.262 34.500,231.187 34.500 C 231.113 34.500,230.843 34.679,230.588 34.899 L 230.124 35.298 230.544 35.573 C 231.155 35.973,231.218 36.428,230.710 36.761 C 230.422 36.949,230.352 37.075,230.488 37.159 C 230.768 37.333,230.119 38.392,229.582 38.637 C 229.354 38.741,229.168 38.922,229.169 39.038 C 229.171 39.195,229.204 39.199,229.296 39.055 C 229.364 38.948,229.644 38.816,229.918 38.762 C 230.192 38.709,230.304 38.712,230.167 38.771 C 230.029 38.829,229.796 38.981,229.649 39.109 C 229.502 39.237,229.258 39.294,229.107 39.236 C 228.797 39.117,228.751 38.904,229.003 38.748 C 229.392 38.508,228.903 38.319,227.944 38.338 C 227.379 38.349,226.579 38.323,226.167 38.280 C 225.741 38.236,225.370 38.277,225.308 38.375 C 225.142 38.642,224.657 38.385,224.771 38.090 C 224.881 37.803,224.254 37.759,223.500 38.000 C 223.089 38.132,223.089 38.134,223.468 38.150 C 223.680 38.159,223.809 38.238,223.754 38.326 C 223.700 38.414,223.565 38.450,223.453 38.408 C 223.341 38.365,223.045 38.520,222.795 38.752 C 222.545 38.984,222.108 39.220,221.823 39.277 C 221.516 39.339,221.385 39.429,221.501 39.500 C 221.608 39.567,221.689 39.668,221.681 39.727 C 221.673 39.785,221.667 39.890,221.667 39.959 C 221.667 40.135,222.892 40.500,223.480 40.500 C 223.765 40.500,224.005 40.607,224.064 40.761 C 224.119 40.904,224.233 40.979,224.317 40.927 C 224.400 40.875,224.430 40.983,224.382 41.166 C 224.315 41.422,224.376 41.500,224.647 41.500 C 225.218 41.500,225.053 41.763,224.333 42.000 C 223.299 42.341,223.666 42.443,225.333 42.278 C 225.563 42.255,225.731 42.146,225.708 42.035 C 225.685 41.924,225.726 41.833,225.798 41.833 C 225.871 41.833,225.927 41.627,225.923 41.375 C 225.918 41.029,225.988 40.929,226.208 40.966 C 226.369 40.993,226.500 40.932,226.500 40.831 C 226.500 40.730,226.566 40.688,226.647 40.738 C 227.050 40.987,228.616 40.948,229.185 40.675 C 229.812 40.374,231.241 41.062,230.692 41.401 C 230.586 41.466,230.500 41.678,230.500 41.871 C 230.500 42.064,230.453 42.175,230.395 42.117 C 230.182 41.904,229.634 42.343,229.825 42.573 C 230.053 42.848,229.162 43.568,228.381 43.740 C 228.083 43.805,227.806 43.991,227.752 44.161 C 227.687 44.366,227.548 44.438,227.328 44.380 C 227.113 44.324,227.000 44.378,227.000 44.536 C 227.000 44.783,226.563 44.828,226.220 44.617 C 226.116 44.552,225.698 44.641,225.293 44.815 C 224.242 45.266,223.177 45.007,223.665 44.419 C 223.971 44.050,222.502 43.894,221.198 44.156 C 221.170 44.162,221.190 44.236,221.243 44.322 C 221.296 44.407,221.244 44.537,221.128 44.611 C 220.918 44.744,220.828 44.773,220.490 44.813 C 220.393 44.824,220.363 44.913,220.424 45.011 C 220.484 45.109,220.381 45.229,220.195 45.278 C 220.009 45.326,219.813 45.480,219.759 45.620 C 219.688 45.804,219.746 45.851,219.971 45.793 C 220.217 45.728,220.275 45.800,220.256 46.147 C 220.242 46.419,220.122 46.603,219.938 46.639 C 219.746 46.676,219.678 46.788,219.743 46.960 C 219.799 47.105,219.767 47.271,219.673 47.330 C 219.572 47.392,219.726 47.682,220.048 48.033 C 220.349 48.362,220.564 48.724,220.526 48.839 C 220.481 48.973,220.534 48.999,220.673 48.913 C 220.825 48.819,220.861 48.855,220.793 49.031 C 220.702 49.269,221.639 49.833,222.128 49.833 C 222.229 49.833,222.335 50.040,222.364 50.292 C 222.400 50.607,222.502 50.736,222.689 50.705 C 222.976 50.658,223.234 51.089,223.074 51.348 C 223.022 51.432,222.704 51.502,222.365 51.505 C 221.788 51.510,221.770 51.526,222.074 51.755 C 222.297 51.925,222.325 52.000,222.161 52.000 C 222.021 52.000,222.082 52.109,222.313 52.271 C 222.581 52.459,222.640 52.580,222.503 52.665 C 222.394 52.732,222.290 53.116,222.272 53.518 C 222.254 53.921,222.181 54.344,222.110 54.458 C 221.671 55.166,223.897 53.735,225.328 52.390 C 226.174 51.595,226.307 51.405,226.017 51.405 C 225.775 51.405,225.688 51.482,225.750 51.643 C 225.819 51.824,225.788 51.837,225.620 51.697 C 225.499 51.596,225.223 51.560,225.007 51.617 C 224.733 51.688,224.651 51.661,224.734 51.526 C 224.807 51.408,224.736 51.329,224.552 51.323 C 224.347 51.315,224.420 51.227,224.779 51.049 C 225.381 50.749,225.578 50.269,225.239 49.930 C 224.969 49.660,225.228 49.500,225.936 49.500 C 226.161 49.500,226.530 49.379,226.756 49.231 C 227.031 49.050,227.167 49.027,227.167 49.159 C 227.167 49.288,227.296 49.314,227.542 49.235 C 227.748 49.169,228.013 49.114,228.130 49.113 C 228.577 49.109,230.621 45.187,231.012 43.583 C 231.123 43.125,231.276 42.630,231.350 42.483 C 231.424 42.336,231.528 41.843,231.580 41.387 C 231.632 40.930,231.719 40.376,231.773 40.154 C 231.947 39.439,232.001 35.146,231.839 34.844 C 231.753 34.683,231.646 34.072,231.601 33.484 C 231.530 32.548,231.389 31.920,231.043 31.000 C 230.992 30.863,230.931 30.675,230.909 30.583 C 230.693 29.693,229.265 26.790,229.117 26.939 C 229.070 26.985,228.983 26.804,228.925 26.536 C 228.866 26.267,228.652 25.968,228.450 25.871 C 227.943 25.626,226.802 25.481,226.923 25.677 C 226.976 25.763,226.861 25.833,226.667 25.833 C 226.453 25.833,226.358 25.761,226.427 25.651 C 226.497 25.537,226.422 25.491,226.228 25.528 C 226.057 25.561,225.917 25.674,225.917 25.780 C 225.917 26.140,225.738 26.152,225.523 25.808 C 225.405 25.620,225.379 25.509,225.465 25.562 C 225.552 25.615,225.756 25.511,225.920 25.329 C 226.084 25.148,226.150 24.995,226.067 24.989 C 225.985 24.984,226.085 24.911,226.292 24.828 C 226.773 24.635,226.765 24.416,226.258 23.909 C 225.656 23.307,225.042 23.380,225.147 24.042 C 225.158 24.110,225.054 24.167,224.917 24.167 C 224.618 24.167,224.614 24.132,224.851 23.611 C 224.985 23.318,225.133 23.228,225.393 23.285 C 225.691 23.349,225.709 23.330,225.500 23.168 C 225.311 23.022,225.301 22.954,225.458 22.890 C 225.823 22.742,225.685 22.389,225.035 21.802 C 224.322 21.157,222.833 20.103,222.833 20.242 C 222.833 20.292,222.683 20.183,222.500 20.000 C 222.054 19.554,221.705 19.573,221.741 20.042 M228.119 27.667 C 228.139 27.667,228.117 27.768,228.070 27.892 C 227.910 28.308,226.055 28.248,225.826 27.819 C 225.643 27.477,225.664 27.465,226.317 27.527 C 226.693 27.563,227.000 27.539,227.000 27.474 C 227.000 27.410,227.243 27.426,227.541 27.512 C 227.838 27.597,228.098 27.667,228.119 27.667 M225.613 30.356 C 225.311 31.125,225.324 31.224,225.709 31.076 C 225.983 30.971,226.180 30.124,225.998 29.831 C 225.938 29.733,225.765 29.970,225.613 30.356 M223.525 30.315 C 223.348 30.426,223.383 30.516,223.687 30.729 C 224.171 31.068,224.500 31.076,224.500 30.750 C 224.500 30.613,224.575 30.500,224.667 30.500 C 224.758 30.500,224.833 30.425,224.833 30.333 C 224.833 30.130,223.838 30.116,223.525 30.315 M230.000 30.760 C 230.000 30.892,229.969 31.000,229.930 31.000 C 229.892 31.000,229.739 31.046,229.591 31.103 C 229.358 31.193,229.348 31.150,229.519 30.775 C 229.719 30.335,230.000 30.326,230.000 30.760 M86.000 37.157 C 86.000 44.392,85.962 44.142,86.988 43.634 C 90.126 42.082,91.568 37.478,89.967 34.126 C 89.130 32.372,87.171 30.500,86.173 30.500 C 86.056 30.500,86.000 32.660,86.000 37.157 M220.893 31.093 C 221.358 31.505,221.711 31.574,221.672 31.246 C 221.662 31.156,221.375 30.991,221.035 30.877 L 220.417 30.671 220.893 31.093 M60.707 31.920 C 60.683 32.334,60.466 33.165,60.225 33.767 C 59.678 35.134,59.725 37.304,60.336 38.833 C 60.537 39.337,60.735 40.050,60.774 40.417 C 60.926 41.814,60.934 42.761,60.797 43.042 C 60.384 43.888,62.139 42.605,62.964 41.457 C 64.942 38.702,64.726 34.851,62.455 32.387 C 61.897 31.782,61.058 31.163,60.800 31.167 C 60.772 31.168,60.730 31.507,60.707 31.920 M222.292 31.550 C 221.734 31.770,221.695 32.000,222.217 32.000 C 222.596 32.000,223.000 31.725,223.000 31.467 C 223.000 31.303,222.880 31.317,222.292 31.550 M159.246 34.190 C 159.171 34.498,159.090 35.200,159.066 35.750 C 158.896 39.567,158.869 39.244,159.360 39.301 C 159.795 39.352,159.805 39.331,159.916 38.135 C 160.102 36.139,159.555 32.920,159.246 34.190 M264.667 35.823 C 264.667 35.910,264.751 36.033,264.854 36.096 C 265.099 36.248,264.947 38.245,264.665 38.585 C 264.498 38.787,264.508 38.833,264.718 38.833 C 265.519 38.833,265.913 37.156,265.335 36.208 C 265.020 35.692,264.667 35.488,264.667 35.823 M229.467 40.255 C 229.415 40.307,229.158 40.294,228.895 40.227 L 228.417 40.104 228.833 39.994 C 229.236 39.888,229.660 40.063,229.467 40.255 M227.958 41.285 C 228.165 41.324,228.333 41.418,228.333 41.495 C 228.333 41.572,228.486 41.595,228.673 41.547 C 229.151 41.422,228.958 41.298,228.215 41.253 C 227.868 41.232,227.752 41.246,227.958 41.285 M223.125 42.625 C 222.684 42.725,222.776 43.000,223.250 43.000 C 223.479 43.000,223.667 42.929,223.667 42.843 C 223.667 42.626,223.470 42.547,223.125 42.625 M372.025 65.992 C 372.062 66.102,372.146 66.186,372.212 66.179 C 372.412 66.159,372.373 65.930,372.158 65.858 C 372.048 65.822,371.988 65.882,372.025 65.992 " stroke="none" fill="#659eb5" fill-rule="evenodd"></path></g></svg>